<?xml version="1.0" encoding="UTF-8" standalone="no"?><svg xmlns="http://www.w3.org/2000/svg" xmlns:xlink="http://www.w3.org/1999/xlink" contentScriptType="application/ecmascript" contentStyleType="text/css" height="764px" preserveAspectRatio="none" style="width:672px;height:764px;" version="1.1" viewBox="0 0 672 764" width="672px" zoomAndPan="magnify"><defs><filter height="300%" id="f13nvm8qoc0ehx" width="300%" x="-1" y="-1"><feGaussianBlur result="blurOut" stdDeviation="2.0"/><feColorMatrix in="blurOut" result="blurOut2" type="matrix" values="0 0 0 0 0 0 0 0 0 0 0 0 0 0 0 0 0 0 .4 0"/><feOffset dx="4.0" dy="4.0" in="blurOut2" result="blurOut3"/><feBlend in="SourceGraphic" in2="blurOut3" mode="normal"/></filter></defs><g><!--MD5=[8403b87cecc3c69107ded8b467a332b8]
cluster HDD--><rect fill="#FFFFFF" filter="url(#f13nvm8qoc0ehx)" height="107" rx="35" ry="35" style="stroke:#000000;stroke-width:1.5;" width="150" x="12" y="7"/><text fill="#000000" font-family="sans-serif" font-size="14" font-weight="bold" lengthAdjust="spacing" textLength="33" x="70.5" y="27.5352">HDD</text><!--MD5=[f8c4cc6f81218d70512cdc10ce5a1e47]
cluster libdpiprocessing--><polygon fill="#FFFFFF" filter="url(#f13nvm8qoc0ehx)" points="16,233,26,223,416,223,416,650,406,660,16,660,16,233" style="stroke:#000000;stroke-width:1.5;"/><line style="stroke:#000000;stroke-width:1.5;" x1="406" x2="416" y1="233" y2="223"/><line style="stroke:#000000;stroke-width:1.5;" x1="16" x2="406" y1="233" y2="233"/><line style="stroke:#000000;stroke-width:1.5;" x1="406" x2="406" y1="233" y2="660"/><text fill="#000000" font-family="sans-serif" font-size="14" font-weight="bold" lengthAdjust="spacing" textLength="120" x="152" y="249.5352">libdpiprocessing</text><!--MD5=[af5328b5e429307ac0a82c9451a8aff8]
cluster bag.tar--><polygon fill="#FFFFFF" filter="url(#f13nvm8qoc0ehx)" points="76,449,131,449,138,471.4883,239,471.4883,239,572,76,572,76,449" style="stroke:#000000;stroke-width:1.5;"/><line style="stroke:#000000;stroke-width:1.5;" x1="76" x2="138" y1="471.4883" y2="471.4883"/><text fill="#000000" font-family="sans-serif" font-size="14" font-weight="bold" lengthAdjust="spacing" textLength="49" x="80" y="464.5352">bag.tar</text><!--MD5=[2ac2f0682d7461d76966acc02c7b4a7e]
entity vendorfiles--><polygon fill="#FEFECE" filter="url(#f13nvm8qoc0ehx)" points="28,42,74,42,81,63,146,63,146,97.9766,28,97.9766,28,42" style="stroke:#000000;stroke-width:1.5;"/><line style="stroke:#000000;stroke-width:1.5;" x1="28" x2="81" y1="63" y2="63"/><text fill="#000000" font-family="sans-serif" font-size="14" lengthAdjust="spacing" textLength="80" x="38" y="83.5352">vendor files</text><!--MD5=[82f23cda116f7491e2ad662b9686858a]
entity files--><polygon fill="#FEFECE" filter="url(#f13nvm8qoc0ehx)" points="52,263,98,263,105,284,122,284,122,318.9766,52,318.9766,52,263" style="stroke:#000000;stroke-width:1.5;"/><line style="stroke:#000000;stroke-width:1.5;" x1="52" x2="105" y1="284" y2="284"/><text fill="#000000" font-family="sans-serif" font-size="14" lengthAdjust="spacing" textLength="28" x="62" y="304.5352">files</text><!--MD5=[a28264f38149f2692eb7c26a70e5a826]
entity manifest.csv--><polygon fill="#FEFECE" filter="url(#f13nvm8qoc0ehx)" points="254,273,254,309.4883,358,309.4883,358,283,348,273,254,273" style="stroke:#000000;stroke-width:1.5;"/><path d="M348,273 L348,283 L358,283 " fill="#FEFECE" style="stroke:#000000;stroke-width:1.5;"/><text fill="#000000" font-family="sans-serif" font-size="14" lengthAdjust="spacing" textLength="84" x="264" y="296.5352">manifest.csv</text><!--MD5=[2d6fd283c7c0e016f2b6cb05b97949dc]
entity awsarchiver--><rect fill="#FEFECE" filter="url(#f13nvm8qoc0ehx)" height="36.4883" style="stroke:#000000;stroke-width:1.5;" width="109" x="170.5" y="384"/><text fill="#000000" font-family="sans-serif" font-size="14" lengthAdjust="spacing" textLength="89" x="180.5" y="407.5352">aws-archiver</text><!--MD5=[99d0f84c57283e5154487d4e82fd631f]
entity DART--><rect fill="#FEFECE" filter="url(#f13nvm8qoc0ehx)" height="36.4883" style="stroke:#000000;stroke-width:1.5;" width="103" x="32.5" y="384"/><text fill="#000000" font-family="sans-serif" font-size="14" lengthAdjust="spacing" textLength="83" x="42.5" y="407.5352">dart-runner</text><!--MD5=[f59eda87e3962aa80650b9c63c8f8f04]
entity keypaths--><rect fill="#FEFECE" filter="url(#f13nvm8qoc0ehx)" height="32.4883" style="stroke:#A80036;stroke-width:1.5;" width="81" x="318.5" y="388"/><rect fill="#FEFECE" height="32.4883" style="stroke:#A80036;stroke-width:1.5;" width="81" x="314.5" y="384"/><text fill="#000000" font-family="sans-serif" font-size="14" lengthAdjust="spacing" textLength="65" x="322.5" y="405.5352">key paths</text><!--MD5=[33514ad2b869aedb5d13a5777438721a]
entity apt_upload--><rect fill="#FEFECE" filter="url(#f13nvm8qoc0ehx)" height="36.4883" style="stroke:#000000;stroke-width:1.5;" width="97" x="35.5" y="608"/><text fill="#000000" font-family="sans-serif" font-size="14" lengthAdjust="spacing" textLength="77" x="45.5" y="631.5352">apt_upload</text><!--MD5=[c338edf484f2e4564cc4ca569e00c931]
entity payload--><polygon fill="#FEFECE" filter="url(#f13nvm8qoc0ehx)" points="119,492,165,492,172,513,215,513,215,547.9766,119,547.9766,119,492" style="stroke:#000000;stroke-width:1.5;"/><line style="stroke:#000000;stroke-width:1.5;" x1="119" x2="172" y1="513" y2="513"/><text fill="#000000" font-family="sans-serif" font-size="14" lengthAdjust="spacing" textLength="54" x="129" y="533.5352">payload</text><!--MD5=[f8e745406a4437ba9dd668c2fc83629b]
entity inventory--><rect fill="#FEFECE" filter="url(#f13nvm8qoc0ehx)" height="36.4883" style="stroke:#000000;stroke-width:1.5;" width="167" x="181.5" y="52"/><text fill="#000000" font-family="sans-serif" font-size="14" lengthAdjust="spacing" textLength="147" x="191.5" y="75.5352">preserve.py inventory</text><!--MD5=[36372c27245bf09523e181bbcc58b0eb]
entity inventory.csv--><polygon fill="#FEFECE" filter="url(#f13nvm8qoc0ehx)" points="213,162.5,213,198.9883,317,198.9883,317,172.5,307,162.5,213,162.5" style="stroke:#000000;stroke-width:1.5;"/><path d="M307,162.5 L307,172.5 L317,172.5 " fill="#FEFECE" style="stroke:#000000;stroke-width:1.5;"/><text fill="#000000" font-family="sans-serif" font-size="14" lengthAdjust="spacing" textLength="84" x="223" y="186.0352">manifest.csv</text><!--MD5=[bce9e5b8925639d03d9010f6f9f070b5]
entity accessions--><rect fill="#FEFECE" filter="url(#f13nvm8qoc0ehx)" height="32.4883" style="stroke:#A80036;stroke-width:1.5;" width="89" x="473.5" y="166.5"/><rect fill="#FEFECE" height="32.4883" style="stroke:#A80036;stroke-width:1.5;" width="89" x="469.5" y="162.5"/><text fill="#000000" font-family="sans-serif" font-size="14" lengthAdjust="spacing" textLength="73" x="477.5" y="184.0352">accessions</text><!--MD5=[d88bf933616521ec77bee194e2596d5e]
entity locations--><rect fill="#FEFECE" filter="url(#f13nvm8qoc0ehx)" height="32.4883" style="stroke:#A80036;stroke-width:1.5;" width="78" x="582" y="277"/><rect fill="#FEFECE" height="32.4883" style="stroke:#A80036;stroke-width:1.5;" width="78" x="578" y="273"/><text fill="#000000" font-family="sans-serif" font-size="14" lengthAdjust="spacing" textLength="62" x="586" y="294.5352">locations</text><!--MD5=[e0965f6e745cb8306ccb5894ec252a64]
entity patsydb--><rect fill="#FEFECE" filter="url(#f13nvm8qoc0ehx)" height="36.4883" style="stroke:#000000;stroke-width:1.5;" width="82" x="352" y="162.5"/><text fill="#000000" font-family="sans-serif" font-size="14" lengthAdjust="spacing" textLength="62" x="362" y="186.0352">patsy-db</text><!--MD5=[d4f3570142f35dec01adb583549863ff]
entity patsydbdeposit--><rect fill="#FEFECE" filter="url(#f13nvm8qoc0ehx)" height="36.4883" style="stroke:#000000;stroke-width:1.5;" width="82" x="442" y="273"/><text fill="#000000" font-family="sans-serif" font-size="14" lengthAdjust="spacing" textLength="62" x="452" y="296.5352">patsy-db</text><!--MD5=[829a04ad57ec4aa430f11b368a6dd616]
entity PATSy--><path d="M598,168 C598,158 629,158 629,158 C629,158 660,158 660,168 L660,193.4883 C660,203.4883 629,203.4883 629,203.4883 C629,203.4883 598,203.4883 598,193.4883 L598,168 " fill="#FEFECE" filter="url(#f13nvm8qoc0ehx)" style="stroke:#000000;stroke-width:1.5;"/><path d="M598,168 C598,178 629,178 629,178 C629,178 660,178 660,168 " fill="none" style="stroke:#000000;stroke-width:1.5;"/><text fill="#000000" font-family="sans-serif" font-size="14" lengthAdjust="spacing" textLength="42" x="608" y="195.5352">PATSy</text><!--MD5=[3b459a5b2aedefa28cfd04f2c7f8d2c0]
entity dartrunner--><polygon fill="#FEFECE" filter="url(#f13nvm8qoc0ehx)" points="161,709,161,745.4883,297,745.4883,297,719,287,709,161,709" style="stroke:#000000;stroke-width:1.5;"/><path d="M287,709 L287,719 L297,719 " fill="#FEFECE" style="stroke:#000000;stroke-width:1.5;"/><text fill="#000000" font-family="sans-serif" font-size="14" lengthAdjust="spacing" textLength="116" x="171" y="732.5352">dart-runner.json</text><!--MD5=[6b79fc3fbc1964d4aa85a65b864094f2]
entity AWS--><path d="M444.2468,387.3142 C447.4552,381.5868 451.5679,381.5708 455.9387,385.9724 C458.6076,380.4278 463.746,381.2279 466.4094,385.9779 C469.919,382.1481 474.1222,382.8038 476.417,387.4177 C481.3729,381.1434 485.5385,381.8724 489.1145,388.7499 C495.419,391.5118 497.2652,397.9046 491.1071,402.4757 C497.4527,408.4178 496.8771,417.0419 487.1644,419.198 C485.0851,425.3384 480.3171,425.8724 476.1816,421.3074 C473.8802,426.5676 469.5552,426.5333 466.5613,421.9868 C462.4276,427.4714 457.38,427.0139 454.0639,421.0911 C449.7532,424.0141 446.3372,422.3384 444.9604,417.6035 C437.1748,415.1869 435.3025,409.4491 440.686,403.1405 C434.3016,397.3639 434.8661,389.5438 444.2468,387.3142 " fill="#FEFECE" filter="url(#f13nvm8qoc0ehx)" style="stroke:#000000;stroke-width:1.5;"/><text fill="#000000" font-family="sans-serif" font-size="14" lengthAdjust="spacing" textLength="30" x="450" y="407.5352">AWS</text><!--MD5=[ef612689fa995bc62764830febeedbcc]
entity APTrust--><path d="M51.3988,713.8259 C53.9638,707.7893 57.934,707.2086 62.7765,711.2565 C66.2724,706.4522 71.434,705.3207 74.4051,711.7975 C76.2201,706.4323 80.7807,706.207 84.2423,710.0356 C87.801,706.0078 93.5415,705.6781 95.4392,711.8576 C98.8776,707.0845 103.2059,705.9358 106.7597,711.734 C111.2738,706.2606 114.7886,706.8011 118.0842,712.9238 C127.2122,715.5851 130.5899,719.9456 125.4225,729.0942 C131.1656,736.058 126.8882,743.3792 118.9515,744.6537 C116.8116,750.0935 112.8219,751.6123 108.1207,747.5835 C104.9415,753.1922 100.5858,753.9254 96.0572,749.1513 C94.5309,755.275 90.476,757.9758 84.7206,753.8113 C79.5438,757.8499 75.8058,755.6187 74.6306,749.74 C69.2901,754.1715 64.7708,753.7882 61.9358,746.924 C57.8968,750.5061 53.7822,749.2207 52.1123,744.2142 C43.5253,740.5586 42.7721,733.6957 48.9753,727.2975 C42.7384,721.4909 43.2324,717.0415 51.3988,713.8259 " fill="#FEFECE" filter="url(#f13nvm8qoc0ehx)" style="stroke:#000000;stroke-width:1.5;"/><text fill="#000000" font-family="sans-serif" font-size="14" lengthAdjust="spacing" textLength="54" x="57" y="732.5352">APTrust</text><!--MD5=[935d2ab905fa52b539c0f3ec318a9e7e]
link inventory.csv to manifest.csv--><path d="M285.5,198.75 C285.5,198.75 285.5,267.73 285.5,267.73 " fill="none" id="inventory.csv-to-manifest.csv" style="stroke:#A80036;stroke-width:1.0;"/><polygon fill="#A80036" points="285.5,272.73,289.5,263.73,285.5,267.73,281.5,263.73,285.5,272.73" style="stroke:#A80036;stroke-width:1.0;"/><!--MD5=[dcb18d3040d20cf3763566be699b2a4a]
link vendorfiles to files--><path d="M87,98.44 C87,98.44 87,257.67 87,257.67 " fill="none" id="vendorfiles-to-files" style="stroke:#A80036;stroke-width:1.0;"/><polygon fill="#A80036" points="87,262.67,91,253.67,87,257.67,83,253.67,87,262.67" style="stroke:#A80036;stroke-width:1.0;"/><!--MD5=[ec2a418b37fd54ce5e59fc8e4c50f2c6]
link vendorfiles to inventory--><path d="M146.27,70 C146.27,70 176.25,70 176.25,70 " fill="none" id="vendorfiles-to-inventory" style="stroke:#A80036;stroke-width:1.0;"/><polygon fill="#A80036" points="181.25,70,172.25,66,176.25,70,172.25,74,181.25,70" style="stroke:#A80036;stroke-width:1.0;"/><!--MD5=[444235f8bee905565d7ca2eaf1d63022]
link inventory to inventory.csv--><path d="M265,88.25 C265,88.25 265,157.23 265,157.23 " fill="none" id="inventory-to-inventory.csv" style="stroke:#A80036;stroke-width:1.0;"/><polygon fill="#A80036" points="265,162.23,269,153.23,265,157.23,261,153.23,265,162.23" style="stroke:#A80036;stroke-width:1.0;"/><!--MD5=[dc4b54f3c3d8eb2dcca6d18170ed937f]
link inventory.csv to patsydb--><path d="M317.06,181 C317.06,181 346.97,181 346.97,181 " fill="none" id="inventory.csv-to-patsydb" style="stroke:#A80036;stroke-width:1.0;"/><polygon fill="#A80036" points="351.97,181,342.97,177,346.97,181,342.97,185,351.97,181" style="stroke:#A80036;stroke-width:1.0;"/><!--MD5=[dd1511e8872ff5a3395eb132ed94e960]
link patsydb to accessions--><path d="M434.3,181 C434.3,181 464.08,181 464.08,181 " fill="none" id="patsydb-to-accessions" style="stroke:#A80036;stroke-width:1.0;"/><polygon fill="#A80036" points="469.08,181,460.08,177,464.08,181,460.08,185,469.08,181" style="stroke:#A80036;stroke-width:1.0;"/><!--MD5=[2c64200159611d47dc3e78fa8afc48b5]
link accessions to PATSy--><path d="M562.61,181 C562.61,181 592.97,181 592.97,181 " fill="none" id="accessions-to-PATSy" style="stroke:#A80036;stroke-width:1.0;"/><polygon fill="#A80036" points="597.97,181,588.97,177,592.97,181,588.97,185,597.97,181" style="stroke:#A80036;stroke-width:1.0;"/><!--MD5=[47ff13e6efe60c006009bf3bf546137b]
link files to awsarchiver--><path d="M122.18,314 C147.05,314 176,314 176,314 C176,314 176,378.77 176,378.77 " fill="none" id="files-to-awsarchiver" style="stroke:#A80036;stroke-width:1.0;"/><polygon fill="#A80036" points="176,383.77,180,374.77,176,378.77,172,374.77,176,383.77" style="stroke:#A80036;stroke-width:1.0;"/><!--MD5=[a600d7dba7b83cafe0fffd4662deee89]
link manifest.csv to awsarchiver--><path d="M266.75,309.33 C266.75,309.33 266.75,378.64 266.75,378.64 " fill="none" id="manifest.csv-to-awsarchiver" style="stroke:#A80036;stroke-width:1.0;"/><polygon fill="#A80036" points="266.75,383.64,270.75,374.64,266.75,378.64,262.75,374.64,266.75,383.64" style="stroke:#A80036;stroke-width:1.0;"/><!--MD5=[f26e43bc621810dc57edc8512fff29b1]
link awsarchiver to keypaths--><path d="M279.83,402 C279.83,402 309.21,402 309.21,402 " fill="none" id="awsarchiver-to-keypaths" style="stroke:#A80036;stroke-width:1.0;"/><polygon fill="#A80036" points="314.21,402,305.21,398,309.21,402,305.21,406,314.21,402" style="stroke:#A80036;stroke-width:1.0;"/><!--MD5=[9cad1bc622f3d2891d547a701bf7c0a8]
link keypaths to AWS--><path d="M399.68,402 C399.68,402 429.93,402 429.93,402 " fill="none" id="keypaths-to-AWS" style="stroke:#A80036;stroke-width:1.0;"/><polygon fill="#A80036" points="434.93,402,425.93,398,429.93,402,425.93,406,434.93,402" style="stroke:#A80036;stroke-width:1.0;"/><!--MD5=[1707cd4089dbcbb43810764732b606be]
reverse link manifest.csv to keypaths--><path d="M336.25,314.33 C336.25,314.33 336.25,383.64 336.25,383.64 " fill="none" id="manifest.csv-backto-keypaths" style="stroke:#A80036;stroke-width:1.0;"/><polygon fill="#A80036" points="336.25,309.33,332.25,318.33,336.25,314.33,340.25,318.33,336.25,309.33" style="stroke:#A80036;stroke-width:1.0;"/><!--MD5=[55db056d51a8f4dc19111e75321b9f3b]
link manifest.csv to patsydbdeposit--><path d="M358.15,291 C358.15,291 436.88,291 436.88,291 " fill="none" id="manifest.csv-to-patsydbdeposit" style="stroke:#A80036;stroke-width:1.0;"/><polygon fill="#A80036" points="441.88,291,432.88,287,436.88,291,432.88,295,441.88,291" style="stroke:#A80036;stroke-width:1.0;"/><!--MD5=[131e93115330427e0df2a0a568f9c1d8]
link patsydbdeposit to locations--><path d="M524.17,291 C524.17,291 572.97,291 572.97,291 " fill="none" id="patsydbdeposit-to-locations" style="stroke:#A80036;stroke-width:1.0;"/><polygon fill="#A80036" points="577.97,291,568.97,287,572.97,291,568.97,295,577.97,291" style="stroke:#A80036;stroke-width:1.0;"/><!--MD5=[86ea7934f15e3d4e7bad804bd06b24d4]
reverse link PATSy to locations--><path d="M629,208.13 C629,208.13 629,272.79 629,272.79 " fill="none" id="PATSy-backto-locations" style="stroke:#A80036;stroke-width:1.0;"/><polygon fill="#A80036" points="629,203.13,625,212.13,629,208.13,633,212.13,629,203.13" style="stroke:#A80036;stroke-width:1.0;"/><!--MD5=[f4906b2d4446ed618137e9795e09dfb8]
link files to DART--><path d="M87,319.01 C87,319.01 87,378.75 87,378.75 " fill="none" id="files-to-DART" style="stroke:#A80036;stroke-width:1.0;"/><polygon fill="#A80036" points="87,383.75,91,374.75,87,378.75,83,374.75,87,383.75" style="stroke:#A80036;stroke-width:1.0;"/><!--MD5=[9fb5e985fdb9f2b7677f04df2e71634d]
link DART to bag.tar--><path d="M84,420.18 C84,428.0675 84,437.8638 84,448.2113 C84,448.3729 84,448.5347 84,448.6967 " fill="none" id="DART-to-bag.tar" style="stroke:#A80036;stroke-width:1.0;"/><polygon fill="#A80036" points="84,448.6967,88,439.6967,84,443.6967,80,439.6967,84,448.6967" style="stroke:#A80036;stroke-width:1.0;"/><!--MD5=[137b3e6f1b157fba1fd1ae356960da19]
link bag.tar to apt_upload--><path d="M84,572.1525 C84,572.4634 84,572.7734 84,573.0825 C84,574.3189 84,575.5402 84,576.7415 C84,581.5468 84,586.0317 84,589.8759 C84,597.5644 84,602.69 84,602.69 " fill="none" id="bag.tar-to-apt_upload" style="stroke:#A80036;stroke-width:1.0;"/><polygon fill="#A80036" points="84,607.69,88.0257,598.7015,84.0143,602.69,80.0257,598.6786,84,607.69" style="stroke:#A80036;stroke-width:1.0;"/><!--MD5=[6fe2641a477793cfe6cc9dd3bac5fda4]
link apt_upload to APTrust--><path d="M84,644.06 C84,644.06 84,698.77 84,698.77 " fill="none" id="apt_upload-to-APTrust" style="stroke:#A80036;stroke-width:1.0;"/><polygon fill="#A80036" points="84,703.77,88,694.77,84,698.77,80,694.77,84,703.77" style="stroke:#A80036;stroke-width:1.0;"/><!--MD5=[17600fa5c0e90ac06b47d5abf74d9483]
link APTrust to dartrunner--><path d="M126.33,727 C126.33,727 155.97,727 155.97,727 " fill="none" id="APTrust-to-dartrunner" style="stroke:#A80036;stroke-width:1.0;"/><polygon fill="#A80036" points="160.97,727,151.97,723,155.97,727,151.97,731,160.97,727" style="stroke:#A80036;stroke-width:1.0;"/><!--MD5=[61d691b46bdbd96132ee1652d17fd017]
@startuml
skinparam linetype ortho

storage HDD {
    folder vendorfiles as "vendor files"
}
rectangle inventory as "preserve.py inventory"
file inventory.csv as "manifest.csv"
collections accessions
collections locations
rectangle patsydb as "patsy-db"
rectangle patsydbdeposit as "patsy-db"
database PATSy
node libdpiprocessing {
    folder files
    file manifest.csv
    rectangle awsarchiver as "aws-archiver"
    rectangle DART as "dart-runner"
    collections keypaths as "key paths"
    package bag.tar {
        folder payload
    }
    rectangle apt_upload
}
file dartrunner as "dart-runner.json"
cloud AWS
cloud APTrust

inventory.csv - -> manifest.csv
vendorfiles - -> files

vendorfiles -> inventory
inventory - -> inventory.csv
inventory.csv -> patsydb
patsydb -> accessions
accessions -> PATSy

files - -> awsarchiver
manifest.csv - -> awsarchiver
awsarchiver -> keypaths
keypaths -> AWS
manifest.csv <- - keypaths
manifest.csv -> patsydbdeposit
patsydbdeposit -> locations
PATSy <- - locations

files - -> DART
DART - -> bag.tar
bag.tar - -> apt_upload
apt_upload - -> APTrust
APTrust -> dartrunner
@enduml

PlantUML version 1.2021.4(Sun Apr 04 04:49:39 EDT 2021)
(GPL source distribution)
Java Runtime: Java(TM) SE Runtime Environment
JVM: Java HotSpot(TM) 64-Bit Server VM
Default Encoding: UTF-8
Language: en
Country: US
--></g></svg>