<?xml version="1.0" encoding="UTF-8" standalone="no"?><svg xmlns="http://www.w3.org/2000/svg" xmlns:xlink="http://www.w3.org/1999/xlink" contentScriptType="application/ecmascript" contentStyleType="text/css" height="956px" preserveAspectRatio="none" style="width:987px;height:956px;" version="1.1" viewBox="0 0 987 956" width="987px" zoomAndPan="magnify"><defs><filter height="300%" id="f1ibaakh2hq2nd" width="300%" x="-1" y="-1"><feGaussianBlur result="blurOut" stdDeviation="2.0"/><feColorMatrix in="blurOut" result="blurOut2" type="matrix" values="0 0 0 0 0 0 0 0 0 0 0 0 0 0 0 0 0 0 .4 0"/><feOffset dx="4.0" dy="4.0" in="blurOut2" result="blurOut3"/><feBlend in="SourceGraphic" in2="blurOut3" mode="normal"/></filter></defs><g><!--MD5=[8403b87cecc3c69107ded8b467a332b8]
cluster HDD--><rect fill="#FFFFFF" filter="url(#f1ibaakh2hq2nd)" height="91" rx="35" ry="35" style="stroke: #000000; stroke-width: 1.5;" width="126" x="119" y="16"/><text fill="#000000" font-family="sans-serif" font-size="14" font-weight="bold" lengthAdjust="spacingAndGlyphs" textLength="33" x="165.5" y="35.9951">HDD</text><!--MD5=[30afa6242ed7a9da9c35c8eba5ba651d]
cluster Kubernetes--><polygon fill="#FFFFFF" filter="url(#f1ibaakh2hq2nd)" points="400,773,410,763,741,763,741,934,731,944,400,944,400,773" style="stroke: #000000; stroke-width: 1.5;"/><line style="stroke: #000000; stroke-width: 1.5;" x1="731" x2="740" y1="773" y2="764"/><line style="stroke: #000000; stroke-width: 1.5;" x1="400" x2="731" y1="773" y2="773"/><line style="stroke: #000000; stroke-width: 1.5;" x1="731" x2="731" y1="773" y2="944"/><text fill="#000000" font-family="sans-serif" font-size="14" font-weight="bold" lengthAdjust="spacingAndGlyphs" textLength="93" x="520" y="788.9951">Kubernetes</text><!--MD5=[f8c4cc6f81218d70512cdc10ce5a1e47]
cluster libdpiprocessing--><polygon fill="#FFFFFF" filter="url(#f1ibaakh2hq2nd)" points="14,233,24,223,392,223,392,833.5,382,843.5,14,843.5,14,233" style="stroke: #000000; stroke-width: 1.5;"/><line style="stroke: #000000; stroke-width: 1.5;" x1="382" x2="391" y1="233" y2="224"/><line style="stroke: #000000; stroke-width: 1.5;" x1="14" x2="382" y1="233" y2="233"/><line style="stroke: #000000; stroke-width: 1.5;" x1="382" x2="382" y1="233" y2="843.5"/><text fill="#000000" font-family="sans-serif" font-size="14" font-weight="bold" lengthAdjust="spacingAndGlyphs" textLength="130" x="134" y="248.9951">libdpiprocessing</text><!--MD5=[af5328b5e429307ac0a82c9451a8aff8]
cluster bag.tar--><polygon fill="#FFFFFF" filter="url(#f1ibaakh2hq2nd)" points="122,546,184,546,191,568.2969,257,568.2969,257,637,122,637,122,546" style="stroke: #000000; stroke-width: 1.5;"/><line style="stroke: #000000; stroke-width: 1.5;" x1="122" x2="191" y1="568.2969" y2="568.2969"/><text fill="#000000" font-family="sans-serif" font-size="14" font-weight="bold" lengthAdjust="spacingAndGlyphs" textLength="56" x="126" y="560.9951">bag.tar</text><!--MD5=[2ac2f0682d7461d76966acc02c7b4a7e]
entity vendorfiles--><polygon fill="#FEFECE" filter="url(#f1ibaakh2hq2nd)" points="127.5,43,173.5,43,180.5,64,236.5,64,236.5,98.5938,127.5,98.5938,127.5,43" style="stroke: #000000; stroke-width: 1.5;"/><line style="stroke: #000000; stroke-width: 1.5;" x1="127.5" x2="180.5" y1="64" y2="64"/><text fill="#000000" font-family="sans-serif" font-size="14" lengthAdjust="spacingAndGlyphs" textLength="79" x="137.5" y="83.9951">vendor files</text><!--MD5=[829a04ad57ec4aa430f11b368a6dd616]
entity PATSy--><path d="M669.5,805 C669.5,795 701,795 701,795 C701,795 732.5,795 732.5,805 L732.5,830.2969 C732.5,840.2969 701,840.2969 701,840.2969 C701,840.2969 669.5,840.2969 669.5,830.2969 L669.5,805 " fill="#FEFECE" filter="url(#f1ibaakh2hq2nd)" style="stroke: #000000; stroke-width: 1.5;"/><path d="M669.5,805 C669.5,815 701,815 701,815 C701,815 732.5,815 732.5,805 " fill="none" style="stroke: #000000; stroke-width: 1.5;"/><text fill="#000000" font-family="sans-serif" font-size="14" lengthAdjust="spacingAndGlyphs" textLength="43" x="679.5" y="831.9951">PATSy</text><!--MD5=[bce9e5b8925639d03d9010f6f9f070b5]
entity accessions--><rect fill="#FEFECE" filter="url(#f1ibaakh2hq2nd)" height="32.2969" style="stroke: #000000; stroke-width: 1.5;" width="94" x="540" y="803.5"/><rect fill="#FEFECE" height="32.2969" style="stroke: #000000; stroke-width: 1.5;" width="94" x="536" y="799.5"/><text fill="#000000" font-family="sans-serif" font-size="14" lengthAdjust="spacingAndGlyphs" textLength="78" x="544" y="820.4951">accessions</text><!--MD5=[d88bf933616521ec77bee194e2596d5e]
entity locations--><rect fill="#FEFECE" filter="url(#f1ibaakh2hq2nd)" height="32.2969" style="stroke: #000000; stroke-width: 1.5;" width="78" x="655" y="904"/><rect fill="#FEFECE" height="32.2969" style="stroke: #000000; stroke-width: 1.5;" width="78" x="651" y="900"/><text fill="#000000" font-family="sans-serif" font-size="14" lengthAdjust="spacingAndGlyphs" textLength="62" x="659" y="920.9951">locations</text><!--MD5=[2575926803210165167e766c41e42a2b]
entity patsyaptrust--><rect fill="#FEFECE" filter="url(#f1ibaakh2hq2nd)" height="36.2969" style="stroke: #000000; stroke-width: 1.5;" width="93" x="407.5" y="799.5"/><text fill="#000000" font-family="sans-serif" font-size="14" lengthAdjust="spacingAndGlyphs" textLength="73" x="417.5" y="822.4951">patsy sync</text><!--MD5=[82f23cda116f7491e2ad662b9686858a]
entity files--><polygon fill="#FEFECE" filter="url(#f1ibaakh2hq2nd)" points="153.5,255,199.5,255,206.5,276,210.5,276,210.5,310.5938,153.5,310.5938,153.5,255" style="stroke: #000000; stroke-width: 1.5;"/><line style="stroke: #000000; stroke-width: 1.5;" x1="153.5" x2="206.5" y1="276" y2="276"/><text fill="#000000" font-family="sans-serif" font-size="14" lengthAdjust="spacingAndGlyphs" textLength="27" x="163.5" y="295.9951">files</text><!--MD5=[a28264f38149f2692eb7c26a70e5a826]
entity manifest.csv--><polygon fill="#FEFECE" filter="url(#f1ibaakh2hq2nd)" points="278,265,278,301.2969,384,301.2969,384,275,374,265,278,265" style="stroke: #000000; stroke-width: 1.5;"/><path d="M374,265 L374,275 L384,275 " fill="#FEFECE" style="stroke: #000000; stroke-width: 1.5;"/><text fill="#000000" font-family="sans-serif" font-size="14" lengthAdjust="spacingAndGlyphs" textLength="86" x="288" y="287.9951">manifest.csv</text><!--MD5=[2d6fd283c7c0e016f2b6cb05b97949dc]
entity awsarchiver--><rect fill="#FEFECE" filter="url(#f1ibaakh2hq2nd)" height="36.2969" style="stroke: #000000; stroke-width: 1.5;" width="106" x="155" y="376"/><text fill="#000000" font-family="sans-serif" font-size="14" lengthAdjust="spacingAndGlyphs" textLength="86" x="165" y="398.9951">aws-archiver</text><!--MD5=[99d0f84c57283e5154487d4e82fd631f]
entity DART--><rect fill="#FEFECE" filter="url(#f1ibaakh2hq2nd)" height="36.2969" style="stroke: #000000; stroke-width: 1.5;" width="98" x="22" y="376"/><text fill="#000000" font-family="sans-serif" font-size="14" lengthAdjust="spacingAndGlyphs" textLength="78" x="32" y="398.9951">dart-runner</text><!--MD5=[f59eda87e3962aa80650b9c63c8f8f04]
entity keypaths--><rect fill="#FEFECE" filter="url(#f1ibaakh2hq2nd)" height="32.2969" style="stroke: #000000; stroke-width: 1.5;" width="83" x="300.5" y="380"/><rect fill="#FEFECE" height="32.2969" style="stroke: #000000; stroke-width: 1.5;" width="83" x="296.5" y="376"/><text fill="#000000" font-family="sans-serif" font-size="14" lengthAdjust="spacingAndGlyphs" textLength="67" x="304.5" y="396.9951">key paths</text><!--MD5=[33514ad2b869aedb5d13a5777438721a]
entity apt_upload--><rect fill="#FEFECE" filter="url(#f1ibaakh2hq2nd)" height="36.2969" style="stroke: #000000; stroke-width: 1.5;" width="96" x="260" y="694"/><text fill="#000000" font-family="sans-serif" font-size="14" lengthAdjust="spacingAndGlyphs" textLength="76" x="270" y="716.9951">apt_upload</text><!--MD5=[a8b6e8d91342ae8267d2c267329391f1]
entity dartrunner_json--><polygon fill="#FEFECE" filter="url(#f1ibaakh2hq2nd)" points="22.5,477,22.5,513.2969,153.5,513.2969,153.5,487,143.5,477,22.5,477" style="stroke: #000000; stroke-width: 1.5;"/><path d="M143.5,477 L143.5,487 L153.5,487 " fill="#FEFECE" style="stroke: #000000; stroke-width: 1.5;"/><text fill="#000000" font-family="sans-serif" font-size="14" lengthAdjust="spacingAndGlyphs" textLength="111" x="32.5" y="499.9951">dart-runner.json</text><!--MD5=[b91539a8f382aa2eebedce08675fc361]
entity apt_upload_json--><polygon fill="#FEFECE" filter="url(#f1ibaakh2hq2nd)" points="243.5,799.5,243.5,835.7969,372.5,835.7969,372.5,809.5,362.5,799.5,243.5,799.5" style="stroke: #000000; stroke-width: 1.5;"/><path d="M362.5,799.5 L362.5,809.5 L372.5,809.5 " fill="#FEFECE" style="stroke: #000000; stroke-width: 1.5;"/><text fill="#000000" font-family="sans-serif" font-size="14" lengthAdjust="spacingAndGlyphs" textLength="109" x="253.5" y="822.4951">apt_upload.json</text><!--MD5=[c338edf484f2e4564cc4ca569e00c931]
entity payload--><polygon fill="#FEFECE" filter="url(#f1ibaakh2hq2nd)" points="130.5,573,176.5,573,183.5,594,213.5,594,213.5,628.5938,130.5,628.5938,130.5,573" style="stroke: #000000; stroke-width: 1.5;"/><line style="stroke: #000000; stroke-width: 1.5;" x1="130.5" x2="183.5" y1="594" y2="594"/><text fill="#000000" font-family="sans-serif" font-size="14" lengthAdjust="spacingAndGlyphs" textLength="53" x="140.5" y="613.9951">payload</text><!--MD5=[f8e745406a4437ba9dd668c2fc83629b]
entity inventory--><rect fill="#FEFECE" filter="url(#f1ibaakh2hq2nd)" height="36.2969" style="stroke: #000000; stroke-width: 1.5;" width="168" x="272" y="53"/><text fill="#000000" font-family="sans-serif" font-size="14" lengthAdjust="spacingAndGlyphs" textLength="148" x="282" y="75.9951">preserve.py inventory</text><!--MD5=[36372c27245bf09523e181bbcc58b0eb]
entity inventory.csv--><polygon fill="#FEFECE" filter="url(#f1ibaakh2hq2nd)" points="303,159,303,195.2969,409,195.2969,409,169,399,159,303,159" style="stroke: #000000; stroke-width: 1.5;"/><path d="M399,159 L399,169 L409,169 " fill="#FEFECE" style="stroke: #000000; stroke-width: 1.5;"/><text fill="#000000" font-family="sans-serif" font-size="14" lengthAdjust="spacingAndGlyphs" textLength="86" x="313" y="181.9951">manifest.csv</text><!--MD5=[e0965f6e745cb8306ccb5894ec252a64]
entity patsydb--><rect fill="#FEFECE" filter="url(#f1ibaakh2hq2nd)" height="36.2969" style="stroke: #000000; stroke-width: 1.5;" width="90" x="839" y="799.5"/><text fill="#000000" font-family="sans-serif" font-size="14" lengthAdjust="spacingAndGlyphs" textLength="70" x="849" y="822.4951">patsy load</text><!--MD5=[d4f3570142f35dec01adb583549863ff]
entity patsydbdeposit--><rect fill="#FEFECE" filter="url(#f1ibaakh2hq2nd)" height="36.2969" style="stroke: #000000; stroke-width: 1.5;" width="90" x="567" y="265"/><text fill="#000000" font-family="sans-serif" font-size="14" lengthAdjust="spacingAndGlyphs" textLength="70" x="577" y="287.9951">patsy load</text><!--MD5=[6b79fc3fbc1964d4aa85a65b864094f2]
entity AWS--><path d="M920.1198,380.5689 C922.2827,374.8668 927.2985,373.6066 931.2098,378.7872 C933.6266,373.8214 937.745,372.7927 941.6898,377.0514 C945.8008,372.2177 950.7456,374.508 952.5681,379.5677 C955.8861,373.4177 959.8565,374.6449 963.6834,379.0309 C972.8001,382.0866 975.2672,388.1563 967.8948,395.4431 C974.2857,401.5866 973.437,406.3091 965.4377,410.0284 C964.6703,417.5655 959.893,419.857 953.6011,415.5489 C951.4778,422.1127 947.3489,424.3135 941.1609,420.3539 C935.2792,424.4645 932.0428,422.4425 930.5135,415.9736 C924.7979,418.3236 920.3836,417.4866 920.2991,410.079 C911.8057,407.1055 910.1598,399.6696 917.9352,394.2643 C912.2217,388.8672 913.8384,384.0526 920.1198,380.5689 " fill="#FEFECE" style="stroke: #000000; stroke-width: 1.5;"/><text fill="#000000" font-family="sans-serif" font-size="14" lengthAdjust="spacingAndGlyphs" textLength="31" x="925.5" y="398.9951">AWS</text><!--MD5=[ef612689fa995bc62764830febeedbcc]
entity APTrust--><path d="M409.3988,698.8259 C411.9638,692.7893 415.934,692.2086 420.7765,696.2565 C424.2724,691.4522 429.434,690.3207 432.4051,696.7975 C434.2201,691.4323 438.7807,691.207 442.2423,695.0356 C445.801,691.0078 451.5415,690.6781 453.4392,696.8576 C456.8776,692.0845 461.2059,690.9358 464.7597,696.734 C469.2738,691.2606 472.7886,691.8011 476.0842,697.9238 C485.1733,700.5517 488.5441,704.8833 483.4225,713.9985 C489.1203,720.9383 484.8494,728.2118 476.9515,729.4623 C474.8116,734.9021 470.8219,736.4209 466.1207,732.3921 C462.9415,738.0008 458.5858,738.734 454.0572,733.9599 C452.5309,740.0836 448.476,742.7844 442.7206,738.6199 C437.5438,742.6585 433.8058,740.4273 432.6306,734.5486 C427.2901,738.9801 422.7708,738.5968 419.9358,731.7326 C415.8968,735.3147 411.7822,734.0293 410.1123,729.0228 C401.5685,725.3959 400.8125,718.5713 406.9753,712.2018 C400.7885,706.4275 401.2846,702.0092 409.3988,698.8259 " fill="#FEFECE" style="stroke: #000000; stroke-width: 1.5;"/><text fill="#000000" font-family="sans-serif" font-size="14" lengthAdjust="spacingAndGlyphs" textLength="54" x="415" y="716.9951">APTrust</text><!--MD5=[935d2ab905fa52b539c0f3ec318a9e7e]
link inventory.csv to manifest.csv--><path d="M343.5,195.4638 C343.5,195.4638 343.5,259.7478 343.5,259.7478 " fill="none" id="inventory.csv-&gt;manifest.csv" style="stroke: #A80036; stroke-width: 1.0;"/><polygon fill="#A80036" points="343.5,264.7478,347.5,255.7478,343.5,259.7478,339.5,255.7478,343.5,264.7478" style="stroke: #A80036; stroke-width: 1.0;"/><!--MD5=[dcb18d3040d20cf3763566be699b2a4a]
link vendorfiles to files--><path d="M182,99.152 C182,99.152 182,249.7316 182,249.7316 " fill="none" id="vendorfiles-&gt;files" style="stroke: #A80036; stroke-width: 1.0;"/><polygon fill="#A80036" points="182,254.7316,186,245.7316,182,249.7316,178,245.7316,182,254.7316" style="stroke: #A80036; stroke-width: 1.0;"/><!--MD5=[ec2a418b37fd54ce5e59fc8e4c50f2c6]
link vendorfiles to inventory--><path d="M236.5773,71 C236.5773,71 266.9794,71 266.9794,71 " fill="none" id="vendorfiles-&gt;inventory" style="stroke: #A80036; stroke-width: 1.0;"/><polygon fill="#A80036" points="271.9794,71,262.9794,67,266.9794,71,262.9794,75,271.9794,71" style="stroke: #A80036; stroke-width: 1.0;"/><!--MD5=[444235f8bee905565d7ca2eaf1d63022]
link inventory to inventory.csv--><path d="M356,89.4638 C356,89.4638 356,153.7478 356,153.7478 " fill="none" id="inventory-&gt;inventory.csv" style="stroke: #A80036; stroke-width: 1.0;"/><polygon fill="#A80036" points="356,158.7478,360,149.7478,356,153.7478,352,149.7478,356,158.7478" style="stroke: #A80036; stroke-width: 1.0;"/><!--MD5=[dc4b54f3c3d8eb2dcca6d18170ed937f]
link inventory.csv to patsydb--><path d="M409.312,177 C543.8819,177 886.6667,177 886.6667,177 C886.6667,177 886.6667,794.3628 886.6667,794.3628 " fill="none" id="inventory.csv-&gt;patsydb" style="stroke: #A80036; stroke-width: 1.0;"/><polygon fill="#A80036" points="886.6667,799.3628,890.6667,790.3628,886.6667,794.3628,882.6667,790.3628,886.6667,799.3628" style="stroke: #A80036; stroke-width: 1.0;"/><!--MD5=[dd1511e8872ff5a3395eb132ed94e960]
link patsydb to accessions--><path d="M862.8333,799.4325 C862.8333,784.2461 862.8333,765 862.8333,765 C862.8333,765 600.5,765 600.5,765 C600.5,765 600.5,794.4325 600.5,794.4325 " fill="none" id="patsydb-&gt;accessions" style="stroke: #A80036; stroke-width: 1.0;"/><polygon fill="#A80036" points="600.5,799.4325,604.5,790.4325,600.5,794.4325,596.5,790.4325,600.5,799.4325" style="stroke: #A80036; stroke-width: 1.0;"/><!--MD5=[2c64200159611d47dc3e78fa8afc48b5]
link accessions to PATSy--><path d="M634.1944,818 C634.1944,818 664.2258,818 664.2258,818 " fill="none" id="accessions-&gt;PATSy" style="stroke: #A80036; stroke-width: 1.0;"/><polygon fill="#A80036" points="669.2258,818,660.2258,814,664.2258,818,660.2258,822,669.2258,818" style="stroke: #A80036; stroke-width: 1.0;"/><!--MD5=[ba916840ab5c81da4176dbbd67d4b031]
link APTrust to patsyaptrust--><path d="M445.75,735.1524 C445.75,735.1524 445.75,794.2992 445.75,794.2992 " fill="none" id="APTrust-&gt;patsyaptrust" style="stroke: #A80036; stroke-width: 1.0;"/><polygon fill="#A80036" points="445.75,799.2992,449.75,790.2992,445.75,794.2992,441.75,790.2992,445.75,799.2992" style="stroke: #A80036; stroke-width: 1.0;"/><!--MD5=[61008ed56b82dd2b5cffe51d4e3c9053]
link patsyaptrust to locations--><path d="M454,835.9332 C454,864.9467 454,918 454,918 C454,918 645.8153,918 645.8153,918 " fill="none" id="patsyaptrust-&gt;locations" style="stroke: #A80036; stroke-width: 1.0;"/><polygon fill="#A80036" points="650.8153,918,641.8153,914,645.8153,918,641.8153,922,650.8153,918" style="stroke: #A80036; stroke-width: 1.0;"/><!--MD5=[47ff13e6efe60c006009bf3bf546137b]
link files to awsarchiver--><path d="M182.75,311.01 C182.75,311.01 182.75,370.7483 182.75,370.7483 " fill="none" id="files-&gt;awsarchiver" style="stroke: #A80036; stroke-width: 1.0;"/><polygon fill="#A80036" points="182.75,375.7483,186.75,366.7483,182.75,370.7483,178.75,366.7483,182.75,375.7483" style="stroke: #A80036; stroke-width: 1.0;"/><!--MD5=[a600d7dba7b83cafe0fffd4662deee89]
link manifest.csv to awsarchiver--><path d="M287.25,301.2896 C287.25,331.3728 287.25,388 287.25,388 C287.25,388 266.3006,388 266.3006,388 " fill="none" id="manifest.csv-&gt;awsarchiver" style="stroke: #A80036; stroke-width: 1.0;"/><polygon fill="#A80036" points="261.3006,388,270.3006,392,266.3006,388,270.3006,384,261.3006,388" style="stroke: #A80036; stroke-width: 1.0;"/><!--MD5=[f26e43bc621810dc57edc8512fff29b1]
link awsarchiver to keypaths--><path d="M261.309,400 C261.309,400 291.2078,400 291.2078,400 " fill="none" id="awsarchiver-&gt;keypaths" style="stroke: #A80036; stroke-width: 1.0;"/><polygon fill="#A80036" points="296.2078,400,287.2078,396,291.2078,400,287.2078,404,296.2078,400" style="stroke: #A80036; stroke-width: 1.0;"/><!--MD5=[9cad1bc622f3d2891d547a701bf7c0a8]
link keypaths to AWS--><path d="M383.7065,394 C383.7065,394 905.2563,394 905.2563,394 " fill="none" id="keypaths-&gt;AWS" style="stroke: #A80036; stroke-width: 1.0;"/><polygon fill="#A80036" points="910.2563,394,901.2563,390,905.2563,394,901.2563,398,910.2563,394" style="stroke: #A80036; stroke-width: 1.0;"/><!--MD5=[1707cd4089dbcbb43810764732b606be]
reverse link manifest.csv to keypaths--><path d="M340,306.3294 C340,306.3294 340,375.6434 340,375.6434 " fill="none" id="manifest.csv&lt;-keypaths" style="stroke: #A80036; stroke-width: 1.0;"/><polygon fill="#A80036" points="340,301.3294,336,310.3294,340,306.3294,344,310.3294,340,301.3294" style="stroke: #A80036; stroke-width: 1.0;"/><!--MD5=[55db056d51a8f4dc19111e75321b9f3b]
link manifest.csv to patsydbdeposit--><path d="M384.1843,283 C384.1843,283 561.9134,283 561.9134,283 " fill="none" id="manifest.csv-&gt;patsydbdeposit" style="stroke: #A80036; stroke-width: 1.0;"/><polygon fill="#A80036" points="566.9134,283,557.9134,279,561.9134,283,557.9134,287,566.9134,283" style="stroke: #A80036; stroke-width: 1.0;"/><!--MD5=[131e93115330427e0df2a0a568f9c1d8]
link patsydbdeposit to locations--><path d="M657.371,283 C660.9697,283 663.25,283 663.25,283 C663.25,283 663.25,894.6805 663.25,894.6805 " fill="none" id="patsydbdeposit-&gt;locations" style="stroke: #A80036; stroke-width: 1.0;"/><polygon fill="#A80036" points="663.25,899.6805,667.25,890.6805,663.25,894.6805,659.25,890.6805,663.25,899.6805" style="stroke: #A80036; stroke-width: 1.0;"/><!--MD5=[86ea7934f15e3d4e7bad804bd06b24d4]
reverse link PATSy to locations--><path d="M701,845.0542 C701,845.0542 701,899.8766 701,899.8766 " fill="none" id="PATSy&lt;-locations" style="stroke: #A80036; stroke-width: 1.0;"/><polygon fill="#A80036" points="701,840.0542,697,849.0542,701,845.0542,705,849.0542,701,840.0542" style="stroke: #A80036; stroke-width: 1.0;"/><!--MD5=[f4906b2d4446ed618137e9795e09dfb8]
link files to DART--><path d="M153.4147,283 C120.5262,283 71,283 71,283 C71,283 71,370.6706 71,370.6706 " fill="none" id="files-&gt;DART" style="stroke: #A80036; stroke-width: 1.0;"/><polygon fill="#A80036" points="71,375.6706,75,366.6706,71,370.6706,67,366.6706,71,375.6706" style="stroke: #A80036; stroke-width: 1.0;"/><!--MD5=[9fb5e985fdb9f2b7677f04df2e71634d]
link DART to bag.tar--><path d="M87.5,412.2396 C87.5,427.5706 87.5,447 87.5,447 C87.5,447 249,447 249,447 C249,447 249,483.1314 249,520.3918 C249,525.0494 249,529.7246 249,534.349 C249,536.6613 249,538.9608 249,541.2392 C249,542.3783 249,543.5122 249,544.6397 C249,544.9215 249,562.0158 249,562.2969 " fill="none" id="DART-&gt;bag.tar" style="stroke: #A80036; stroke-width: 1.0;"/><polygon fill="#A80036" points="249,545.4841,253,536.4841,249,540.4841,245,536.4841,249,545.4841" style="stroke: #A80036; stroke-width: 1.0;"/><!--MD5=[137b3e6f1b157fba1fd1ae356960da19]
link bag.tar to apt_upload--><path d="M257.0297,601 C257.0606,601 257.0915,601 257.1224,601 C257.246,601 257.3698,601 257.4937,601 C257.9891,601 258.4856,601 258.9769,601 C262.9068,601 266.5,601 266.5,601 C266.5,601 266.5,688.6706 266.5,688.6706 " fill="none" id="bag.tar-&gt;apt_upload" style="stroke: #A80036; stroke-width: 1.0;"/><polygon fill="#A80036" points="266.5,693.6706,270.5,684.6706,266.5,688.6706,262.5,684.6706,266.5,693.6706" style="stroke: #A80036; stroke-width: 1.0;"/><!--MD5=[6fe2641a477793cfe6cc9dd3bac5fda4]
link apt_upload to APTrust--><path d="M356.3771,712 C356.3771,712 394.9003,712 394.9003,712 " fill="none" id="apt_upload-&gt;APTrust" style="stroke: #A80036; stroke-width: 1.0;"/><polygon fill="#A80036" points="399.9003,712,390.9003,708,394.9003,712,390.9003,716,399.9003,712" style="stroke: #A80036; stroke-width: 1.0;"/><!--MD5=[4ac3991b93f646e7cf009d8406e06e23]
link APTrust to apt_upload_json--><path d="M403.75,735.0004 C403.75,766.1759 403.75,818 403.75,818 C403.75,818 377.6627,818 377.6627,818 " fill="none" id="APTrust-&gt;apt_upload_json" style="stroke: #A80036; stroke-width: 1.0; stroke-dasharray: 7.0,7.0;"/><polygon fill="#A80036" points="372.6627,818,381.6627,822,377.6627,818,381.6627,814,372.6627,818" style="stroke: #A80036; stroke-width: 1.0;"/><!--MD5=[303d847c09b9dd0e25181d8ae35934eb]
link apt_upload to apt_upload_json--><path d="M308,730.3767 C308,730.3767 308,794.3339 308,794.3339 " fill="none" id="apt_upload-&gt;apt_upload_json" style="stroke: #A80036; stroke-width: 1.0;"/><polygon fill="#A80036" points="308,799.3339,312,790.3339,308,794.3339,304,790.3339,308,799.3339" style="stroke: #A80036; stroke-width: 1.0;"/><!--MD5=[7789d2573e21bd4f8f490899c3bb65ec]
link DART to dartrunner_json--><path d="M55,412.0568 C55,412.0568 55,471.759 55,471.759 " fill="none" id="DART-&gt;dartrunner_json" style="stroke: #A80036; stroke-width: 1.0;"/><polygon fill="#A80036" points="55,476.759,59,467.759,55,471.759,51,467.759,55,476.759" style="stroke: #A80036; stroke-width: 1.0;"/><!--MD5=[feb0d93c0c31af708f5ccd1fee6d5072]
@startuml Digital Preservation Process
skinparam linetype ortho

storage HDD {
    folder vendorfiles as "vendor files"
}
rectangle inventory as "preserve.py inventory"
file inventory.csv as "manifest.csv"

rectangle patsydb as "patsy load"
rectangle patsydbdeposit as "patsy load"
node Kubernetes {
    database PATSy
    collections accessions
    collections locations
    rectangle patsyaptrust as "patsy sync"
}
node libdpiprocessing {
    folder files
    file manifest.csv
    rectangle awsarchiver as "aws-archiver"
    rectangle DART as "dart-runner"
    collections keypaths as "key paths"
    package bag.tar {
        folder payload
    }
    rectangle apt_upload
    file dartrunner_json as "dart-runner.json"
    file apt_upload_json as "apt_upload.json"
}
cloud AWS
cloud APTrust

inventory.csv - -> manifest.csv
vendorfiles - -> files

vendorfiles -> inventory
inventory - -> inventory.csv
inventory.csv -> patsydb
patsydb -> accessions
accessions -> PATSy
APTrust - -> patsyaptrust
patsyaptrust - -> locations

files - -> awsarchiver
manifest.csv - -> awsarchiver
awsarchiver -> keypaths
keypaths -> AWS
manifest.csv <- - keypaths
manifest.csv -> patsydbdeposit
patsydbdeposit -> locations
PATSy <- - locations

files - -> DART
DART - - -> bag.tar
bag.tar - -> apt_upload
apt_upload -> APTrust
APTrust ..> apt_upload_json
apt_upload - -> apt_upload_json
DART - -> dartrunner_json
@enduml

PlantUML version 1.2020.05(Thu Mar 19 21:17:32 GMT 2020)
(GPL source distribution)
Java Runtime: OpenJDK Runtime Environment
JVM: OpenJDK 64-Bit Server VM
Java Version: 14-ea+33
Operating System: Linux
Default Encoding: UTF-8
Language: en
Country: US
--></g></svg>