<?xml version="1.0" encoding="UTF-8" standalone="no"?><svg xmlns="http://www.w3.org/2000/svg" xmlns:xlink="http://www.w3.org/1999/xlink" contentScriptType="application/ecmascript" contentStyleType="text/css" height="680px" preserveAspectRatio="none" style="width:662px;height:680px;" version="1.1" viewBox="0 0 662 680" width="662px" zoomAndPan="magnify"><defs><filter height="300%" id="f14mbzygcnqssh" width="300%" x="-1" y="-1"><feGaussianBlur result="blurOut" stdDeviation="2.0"/><feColorMatrix in="blurOut" result="blurOut2" type="matrix" values="0 0 0 0 0 0 0 0 0 0 0 0 0 0 0 0 0 0 .4 0"/><feOffset dx="4.0" dy="4.0" in="blurOut2" result="blurOut3"/><feBlend in="SourceGraphic" in2="blurOut3" mode="normal"/></filter></defs><g><!--MD5=[8403b87cecc3c69107ded8b467a332b8]
cluster HDD--><rect fill="#FFFFFF" filter="url(#f14mbzygcnqssh)" height="107" rx="35" ry="35" style="stroke:#000000;stroke-width:1.5;" width="150" x="7" y="7"/><text fill="#000000" font-family="sans-serif" font-size="14" font-weight="bold" lengthAdjust="spacing" textLength="33" x="65.5" y="27.5352">HDD</text><!--MD5=[f8c4cc6f81218d70512cdc10ce5a1e47]
cluster libdpiprocessing--><polygon fill="#FFFFFF" filter="url(#f14mbzygcnqssh)" points="19,233,29,223,374,223,374,594,364,604,19,604,19,233" style="stroke:#000000;stroke-width:1.5;"/><line style="stroke:#000000;stroke-width:1.5;" x1="364" x2="374" y1="233" y2="223"/><line style="stroke:#000000;stroke-width:1.5;" x1="19" x2="364" y1="233" y2="233"/><line style="stroke:#000000;stroke-width:1.5;" x1="364" x2="364" y1="233" y2="604"/><text fill="#000000" font-family="sans-serif" font-size="14" font-weight="bold" lengthAdjust="spacing" textLength="120" x="132.5" y="249.5352">libdpiprocessing</text><!--MD5=[af5328b5e429307ac0a82c9451a8aff8]
cluster bag.tar--><polygon fill="#FFFFFF" filter="url(#f14mbzygcnqssh)" points="56,449,111,449,118,471.4883,219,471.4883,219,572,56,572,56,449" style="stroke:#000000;stroke-width:1.5;"/><line style="stroke:#000000;stroke-width:1.5;" x1="56" x2="118" y1="471.4883" y2="471.4883"/><text fill="#000000" font-family="sans-serif" font-size="14" font-weight="bold" lengthAdjust="spacing" textLength="49" x="60" y="464.5352">bag.tar</text><!--MD5=[2ac2f0682d7461d76966acc02c7b4a7e]
entity vendorfiles--><polygon fill="#FEFECE" filter="url(#f14mbzygcnqssh)" points="23,42,69,42,76,63,141,63,141,97.9766,23,97.9766,23,42" style="stroke:#000000;stroke-width:1.5;"/><line style="stroke:#000000;stroke-width:1.5;" x1="23" x2="76" y1="63" y2="63"/><text fill="#000000" font-family="sans-serif" font-size="14" lengthAdjust="spacing" textLength="80" x="33" y="83.5352">vendor files</text><!--MD5=[82f23cda116f7491e2ad662b9686858a]
entity files--><polygon fill="#FEFECE" filter="url(#f14mbzygcnqssh)" points="47,263,93,263,100,284,117,284,117,318.9766,47,318.9766,47,263" style="stroke:#000000;stroke-width:1.5;"/><line style="stroke:#000000;stroke-width:1.5;" x1="47" x2="100" y1="284" y2="284"/><text fill="#000000" font-family="sans-serif" font-size="14" lengthAdjust="spacing" textLength="28" x="57" y="304.5352">files</text><!--MD5=[a28264f38149f2692eb7c26a70e5a826]
entity manifest.csv--><polygon fill="#FEFECE" filter="url(#f14mbzygcnqssh)" points="237,273,237,309.4883,341,309.4883,341,283,331,273,237,273" style="stroke:#000000;stroke-width:1.5;"/><path d="M331,273 L331,283 L341,283 " fill="#FEFECE" style="stroke:#000000;stroke-width:1.5;"/><text fill="#000000" font-family="sans-serif" font-size="14" lengthAdjust="spacing" textLength="84" x="247" y="296.5352">manifest.csv</text><!--MD5=[2d6fd283c7c0e016f2b6cb05b97949dc]
entity awsarchiver--><rect fill="#FEFECE" filter="url(#f14mbzygcnqssh)" height="36.4883" style="stroke:#000000;stroke-width:1.5;" width="109" x="128.5" y="384"/><text fill="#000000" font-family="sans-serif" font-size="14" lengthAdjust="spacing" textLength="89" x="138.5" y="407.5352">aws-archiver</text><!--MD5=[99d0f84c57283e5154487d4e82fd631f]
entity DART--><rect fill="#FEFECE" filter="url(#f14mbzygcnqssh)" height="36.4883" style="stroke:#000000;stroke-width:1.5;" width="58" x="35" y="384"/><text fill="#000000" font-family="sans-serif" font-size="14" lengthAdjust="spacing" textLength="38" x="45" y="407.5352">DART</text><!--MD5=[f59eda87e3962aa80650b9c63c8f8f04]
entity keypaths--><rect fill="#FEFECE" filter="url(#f14mbzygcnqssh)" height="32.4883" style="stroke:#A80036;stroke-width:1.5;" width="81" x="276.5" y="388"/><rect fill="#FEFECE" height="32.4883" style="stroke:#A80036;stroke-width:1.5;" width="81" x="272.5" y="384"/><text fill="#000000" font-family="sans-serif" font-size="14" lengthAdjust="spacing" textLength="65" x="280.5" y="405.5352">key paths</text><!--MD5=[c338edf484f2e4564cc4ca569e00c931]
entity payload--><polygon fill="#FEFECE" filter="url(#f14mbzygcnqssh)" points="99,492,145,492,152,513,195,513,195,547.9766,99,547.9766,99,492" style="stroke:#000000;stroke-width:1.5;"/><line style="stroke:#000000;stroke-width:1.5;" x1="99" x2="152" y1="513" y2="513"/><text fill="#000000" font-family="sans-serif" font-size="14" lengthAdjust="spacing" textLength="54" x="109" y="533.5352">payload</text><!--MD5=[f8e745406a4437ba9dd668c2fc83629b]
entity inventory--><rect fill="#FEFECE" filter="url(#f14mbzygcnqssh)" height="36.4883" style="stroke:#000000;stroke-width:1.5;" width="167" x="176.5" y="52"/><text fill="#000000" font-family="sans-serif" font-size="14" lengthAdjust="spacing" textLength="147" x="186.5" y="75.5352">preserve.py inventory</text><!--MD5=[36372c27245bf09523e181bbcc58b0eb]
entity inventory.csv--><polygon fill="#FEFECE" filter="url(#f14mbzygcnqssh)" points="208,162.5,208,198.9883,312,198.9883,312,172.5,302,162.5,208,162.5" style="stroke:#000000;stroke-width:1.5;"/><path d="M302,162.5 L302,172.5 L312,172.5 " fill="#FEFECE" style="stroke:#000000;stroke-width:1.5;"/><text fill="#000000" font-family="sans-serif" font-size="14" lengthAdjust="spacing" textLength="84" x="218" y="186.0352">manifest.csv</text><!--MD5=[bce9e5b8925639d03d9010f6f9f070b5]
entity accessions--><rect fill="#FEFECE" filter="url(#f14mbzygcnqssh)" height="32.4883" style="stroke:#A80036;stroke-width:1.5;" width="89" x="468.5" y="166.5"/><rect fill="#FEFECE" height="32.4883" style="stroke:#A80036;stroke-width:1.5;" width="89" x="464.5" y="162.5"/><text fill="#000000" font-family="sans-serif" font-size="14" lengthAdjust="spacing" textLength="73" x="472.5" y="184.0352">accessions</text><!--MD5=[d88bf933616521ec77bee194e2596d5e]
entity locations--><rect fill="#FEFECE" filter="url(#f14mbzygcnqssh)" height="32.4883" style="stroke:#A80036;stroke-width:1.5;" width="78" x="565" y="277"/><rect fill="#FEFECE" height="32.4883" style="stroke:#A80036;stroke-width:1.5;" width="78" x="561" y="273"/><text fill="#000000" font-family="sans-serif" font-size="14" lengthAdjust="spacing" textLength="62" x="569" y="294.5352">locations</text><!--MD5=[e0965f6e745cb8306ccb5894ec252a64]
entity patsydb--><rect fill="#FEFECE" filter="url(#f14mbzygcnqssh)" height="36.4883" style="stroke:#000000;stroke-width:1.5;" width="82" x="347" y="162.5"/><text fill="#000000" font-family="sans-serif" font-size="14" lengthAdjust="spacing" textLength="62" x="357" y="186.0352">patsy-db</text><!--MD5=[d4f3570142f35dec01adb583549863ff]
entity patsydbdeposit--><rect fill="#FEFECE" filter="url(#f14mbzygcnqssh)" height="36.4883" style="stroke:#000000;stroke-width:1.5;" width="82" x="412" y="273"/><text fill="#000000" font-family="sans-serif" font-size="14" lengthAdjust="spacing" textLength="62" x="422" y="296.5352">patsy-db</text><!--MD5=[829a04ad57ec4aa430f11b368a6dd616]
entity PATSy--><path d="M593,168 C593,158 624,158 624,158 C624,158 655,158 655,168 L655,193.4883 C655,203.4883 624,203.4883 624,203.4883 C624,203.4883 593,203.4883 593,193.4883 L593,168 " fill="#FEFECE" filter="url(#f14mbzygcnqssh)" style="stroke:#000000;stroke-width:1.5;"/><path d="M593,168 C593,178 624,178 624,178 C624,178 655,178 655,168 " fill="none" style="stroke:#000000;stroke-width:1.5;"/><text fill="#000000" font-family="sans-serif" font-size="14" lengthAdjust="spacing" textLength="42" x="603" y="195.5352">PATSy</text><!--MD5=[3b459a5b2aedefa28cfd04f2c7f8d2c0]
entity dartrunner--><polygon fill="#FEFECE" filter="url(#f14mbzygcnqssh)" points="141,625,141,661.4883,277,661.4883,277,635,267,625,141,625" style="stroke:#000000;stroke-width:1.5;"/><path d="M267,625 L267,635 L277,635 " fill="#FEFECE" style="stroke:#000000;stroke-width:1.5;"/><text fill="#000000" font-family="sans-serif" font-size="14" lengthAdjust="spacing" textLength="116" x="151" y="648.5352">dart-runner.json</text><!--MD5=[6b79fc3fbc1964d4aa85a65b864094f2]
entity AWS--><path d="M402.2468,387.3142 C405.4552,381.5868 409.5679,381.5708 413.9387,385.9724 C416.6076,380.4278 421.746,381.2279 424.4094,385.9779 C427.919,382.1481 432.1222,382.8038 434.417,387.4177 C439.3729,381.1434 443.5385,381.8724 447.1145,388.7499 C453.419,391.5118 455.2652,397.9046 449.1071,402.4757 C455.4527,408.4178 454.8771,417.0419 445.1644,419.198 C443.0851,425.3384 438.3171,425.8724 434.1816,421.3074 C431.8802,426.5676 427.5552,426.5333 424.5613,421.9868 C420.4276,427.4714 415.38,427.0139 412.0639,421.0911 C407.7532,424.0141 404.3372,422.3384 402.9604,417.6035 C395.1748,415.1869 393.3025,409.4491 398.686,403.1405 C392.3016,397.3639 392.8661,389.5438 402.2468,387.3142 " fill="#FEFECE" filter="url(#f14mbzygcnqssh)" style="stroke:#000000;stroke-width:1.5;"/><text fill="#000000" font-family="sans-serif" font-size="14" lengthAdjust="spacing" textLength="30" x="408" y="407.5352">AWS</text><!--MD5=[ef612689fa995bc62764830febeedbcc]
entity APTrust--><path d="M31.3988,629.8259 C33.9638,623.7893 37.934,623.2086 42.7765,627.2565 C46.2724,622.4522 51.434,621.3207 54.4051,627.7975 C56.2201,622.4323 60.7807,622.207 64.2423,626.0356 C67.801,622.0078 73.5415,621.6781 75.4392,627.8576 C78.8776,623.0845 83.2059,621.9358 86.7597,627.734 C91.2738,622.2606 94.7886,622.8011 98.0842,628.9238 C107.2122,631.5851 110.5899,635.9456 105.4225,645.0942 C111.1656,652.058 106.8882,659.3792 98.9515,660.6537 C96.8116,666.0935 92.8219,667.6123 88.1207,663.5835 C84.9415,669.1922 80.5858,669.9254 76.0572,665.1513 C74.5309,671.275 70.476,673.9758 64.7206,669.8113 C59.5438,673.8499 55.8058,671.6187 54.6306,665.74 C49.2901,670.1715 44.7708,669.7882 41.9358,662.924 C37.8968,666.5061 33.7822,665.2207 32.1123,660.2142 C23.5253,656.5586 22.7721,649.6957 28.9753,643.2975 C22.7384,637.4909 23.2324,633.0415 31.3988,629.8259 " fill="#FEFECE" filter="url(#f14mbzygcnqssh)" style="stroke:#000000;stroke-width:1.5;"/><text fill="#000000" font-family="sans-serif" font-size="14" lengthAdjust="spacing" textLength="54" x="37" y="648.5352">APTrust</text><!--MD5=[935d2ab905fa52b539c0f3ec318a9e7e]
link inventory.csv to manifest.csv--><path d="M274.5,198.75 C274.5,198.75 274.5,267.73 274.5,267.73 " fill="none" id="inventory.csv-to-manifest.csv" style="stroke:#A80036;stroke-width:1.0;"/><polygon fill="#A80036" points="274.5,272.73,278.5,263.73,274.5,267.73,270.5,263.73,274.5,272.73" style="stroke:#A80036;stroke-width:1.0;"/><!--MD5=[dcb18d3040d20cf3763566be699b2a4a]
link vendorfiles to files--><path d="M82,98.44 C82,98.44 82,257.67 82,257.67 " fill="none" id="vendorfiles-to-files" style="stroke:#A80036;stroke-width:1.0;"/><polygon fill="#A80036" points="82,262.67,86,253.67,82,257.67,78,253.67,82,262.67" style="stroke:#A80036;stroke-width:1.0;"/><!--MD5=[ec2a418b37fd54ce5e59fc8e4c50f2c6]
link vendorfiles to inventory--><path d="M141.27,70 C141.27,70 171.25,70 171.25,70 " fill="none" id="vendorfiles-to-inventory" style="stroke:#A80036;stroke-width:1.0;"/><polygon fill="#A80036" points="176.25,70,167.25,66,171.25,70,167.25,74,176.25,70" style="stroke:#A80036;stroke-width:1.0;"/><!--MD5=[444235f8bee905565d7ca2eaf1d63022]
link inventory to inventory.csv--><path d="M260,88.25 C260,88.25 260,157.23 260,157.23 " fill="none" id="inventory-to-inventory.csv" style="stroke:#A80036;stroke-width:1.0;"/><polygon fill="#A80036" points="260,162.23,264,153.23,260,157.23,256,153.23,260,162.23" style="stroke:#A80036;stroke-width:1.0;"/><!--MD5=[dc4b54f3c3d8eb2dcca6d18170ed937f]
link inventory.csv to patsydb--><path d="M312.06,181 C312.06,181 341.97,181 341.97,181 " fill="none" id="inventory.csv-to-patsydb" style="stroke:#A80036;stroke-width:1.0;"/><polygon fill="#A80036" points="346.97,181,337.97,177,341.97,181,337.97,185,346.97,181" style="stroke:#A80036;stroke-width:1.0;"/><!--MD5=[dd1511e8872ff5a3395eb132ed94e960]
link patsydb to accessions--><path d="M429.3,181 C429.3,181 459.08,181 459.08,181 " fill="none" id="patsydb-to-accessions" style="stroke:#A80036;stroke-width:1.0;"/><polygon fill="#A80036" points="464.08,181,455.08,177,459.08,181,455.08,185,464.08,181" style="stroke:#A80036;stroke-width:1.0;"/><!--MD5=[2c64200159611d47dc3e78fa8afc48b5]
link accessions to PATSy--><path d="M557.61,181 C557.61,181 587.97,181 587.97,181 " fill="none" id="accessions-to-PATSy" style="stroke:#A80036;stroke-width:1.0;"/><polygon fill="#A80036" points="592.97,181,583.97,177,587.97,181,583.97,185,592.97,181" style="stroke:#A80036;stroke-width:1.0;"/><!--MD5=[47ff13e6efe60c006009bf3bf546137b]
link files to awsarchiver--><path d="M117.19,314 C126.86,314 134.75,314 134.75,314 C134.75,314 134.75,378.77 134.75,378.77 " fill="none" id="files-to-awsarchiver" style="stroke:#A80036;stroke-width:1.0;"/><polygon fill="#A80036" points="134.75,383.77,138.75,374.77,134.75,378.77,130.75,374.77,134.75,383.77" style="stroke:#A80036;stroke-width:1.0;"/><!--MD5=[a600d7dba7b83cafe0fffd4662deee89]
link manifest.csv to awsarchiver--><path d="M236.78,291 C225.91,291 217.67,291 217.67,291 C217.67,291 217.67,378.67 217.67,378.67 " fill="none" id="manifest.csv-to-awsarchiver" style="stroke:#A80036;stroke-width:1.0;"/><polygon fill="#A80036" points="217.67,383.67,221.67,374.67,217.67,378.67,213.67,374.67,217.67,383.67" style="stroke:#A80036;stroke-width:1.0;"/><!--MD5=[4e7752606718921134478623597de391]
link awsarchiver to AWS--><path d="M227.33,383.76 C227.33,368.43 227.33,349 227.33,349 C227.33,349 402.5,349 402.5,349 C402.5,349 402.5,373.91 402.5,373.91 " fill="none" id="awsarchiver-to-AWS" style="stroke:#A80036;stroke-width:1.0;"/><polygon fill="#A80036" points="402.5,378.91,406.5,369.91,402.5,373.91,398.5,369.91,402.5,378.91" style="stroke:#A80036;stroke-width:1.0;"/><!--MD5=[ca1dfa984a4da30453e75d0078b1c594]
link AWS to keypaths--><path d="M392.92,402 C392.92,402 362.84,402 362.84,402 " fill="none" id="AWS-to-keypaths" style="stroke:#A80036;stroke-width:1.0;"/><polygon fill="#A80036" points="357.84,402,366.84,406,362.84,402,366.84,398,357.84,402" style="stroke:#A80036;stroke-width:1.0;"/><!--MD5=[1707cd4089dbcbb43810764732b606be]
reverse link manifest.csv to keypaths--><path d="M306.75,314.33 C306.75,314.33 306.75,383.64 306.75,383.64 " fill="none" id="manifest.csv-backto-keypaths" style="stroke:#A80036;stroke-width:1.0;"/><polygon fill="#A80036" points="306.75,309.33,302.75,318.33,306.75,314.33,310.75,318.33,306.75,309.33" style="stroke:#A80036;stroke-width:1.0;"/><!--MD5=[55db056d51a8f4dc19111e75321b9f3b]
link manifest.csv to patsydbdeposit--><path d="M341.34,291 C341.34,291 406.79,291 406.79,291 " fill="none" id="manifest.csv-to-patsydbdeposit" style="stroke:#A80036;stroke-width:1.0;"/><polygon fill="#A80036" points="411.79,291,402.79,287,406.79,291,402.79,295,411.79,291" style="stroke:#A80036;stroke-width:1.0;"/><!--MD5=[131e93115330427e0df2a0a568f9c1d8]
link patsydbdeposit to locations--><path d="M494.11,291 C494.11,291 555.77,291 555.77,291 " fill="none" id="patsydbdeposit-to-locations" style="stroke:#A80036;stroke-width:1.0;"/><polygon fill="#A80036" points="560.77,291,551.77,287,555.77,291,551.77,295,560.77,291" style="stroke:#A80036;stroke-width:1.0;"/><!--MD5=[86ea7934f15e3d4e7bad804bd06b24d4]
reverse link PATSy to locations--><path d="M618,208.13 C618,208.13 618,272.79 618,272.79 " fill="none" id="PATSy-backto-locations" style="stroke:#A80036;stroke-width:1.0;"/><polygon fill="#A80036" points="618,203.13,614,212.13,618,208.13,622,212.13,618,203.13" style="stroke:#A80036;stroke-width:1.0;"/><!--MD5=[f4906b2d4446ed618137e9795e09dfb8]
link files to DART--><path d="M70,319.01 C70,319.01 70,378.75 70,378.75 " fill="none" id="files-to-DART" style="stroke:#A80036;stroke-width:1.0;"/><polygon fill="#A80036" points="70,383.75,74,374.75,70,378.75,66,374.75,70,383.75" style="stroke:#A80036;stroke-width:1.0;"/><!--MD5=[9fb5e985fdb9f2b7677f04df2e71634d]
link DART to bag.tar--><path d="M64,420.18 C64,428.0675 64,437.8638 64,448.2113 C64,448.3729 64,448.5347 64,448.6967 " fill="none" id="DART-to-bag.tar" style="stroke:#A80036;stroke-width:1.0;"/><polygon fill="#A80036" points="64,448.6967,68,439.6967,64,443.6967,60,439.6967,64,448.6967" style="stroke:#A80036;stroke-width:1.0;"/><!--MD5=[e7ad22b18c63e3fbc1e993b5ab545939]
link bag.tar to APTrust--><path d="M64,572.2288 C64,573.6929 64,575.1513 64,576.5981 C64,579.4919 64,582.3397 64,585.0957 C64,590.6076 64,595.752 64,600.1616 C64,608.9806 64,614.86 64,614.86 " fill="none" id="bag.tar-to-APTrust" style="stroke:#A80036;stroke-width:1.0;"/><polygon fill="#A80036" points="64,619.86,68,610.86,64,614.86,60,610.86,64,619.86" style="stroke:#A80036;stroke-width:1.0;"/><!--MD5=[17600fa5c0e90ac06b47d5abf74d9483]
link APTrust to dartrunner--><path d="M106.33,643 C106.33,643 135.97,643 135.97,643 " fill="none" id="APTrust-to-dartrunner" style="stroke:#A80036;stroke-width:1.0;"/><polygon fill="#A80036" points="140.97,643,131.97,639,135.97,643,131.97,647,140.97,643" style="stroke:#A80036;stroke-width:1.0;"/><!--MD5=[0b2551be971aaaf1160b8063ba9cf206]
@startuml
skinparam linetype ortho

storage HDD {
    folder vendorfiles as "vendor files"
}
rectangle inventory as "preserve.py inventory"
file inventory.csv as "manifest.csv"
collections accessions
collections locations
rectangle patsydb as "patsy-db"
rectangle patsydbdeposit as "patsy-db"
database PATSy
node libdpiprocessing {
    folder files
    file manifest.csv
    rectangle awsarchiver as "aws-archiver"
    rectangle DART
    collections keypaths as "key paths"
    package bag.tar {
        folder payload
    }
}
file dartrunner as "dart-runner.json"
cloud AWS
cloud APTrust

inventory.csv - -> manifest.csv
vendorfiles - -> files

vendorfiles -> inventory
inventory - -> inventory.csv
inventory.csv -> patsydb
patsydb -> accessions
accessions -> PATSy

files - -> awsarchiver
manifest.csv - -> awsarchiver
awsarchiver -> AWS
AWS -> keypaths
manifest.csv <- - keypaths
manifest.csv -> patsydbdeposit
patsydbdeposit -> locations
PATSy <- - locations

files - -> DART
DART - -> bag.tar
bag.tar - -> APTrust
APTrust -> dartrunner
@enduml

PlantUML version 1.2021.4(Sun Apr 04 04:49:39 EDT 2021)
(GPL source distribution)
Java Runtime: Java(TM) SE Runtime Environment
JVM: Java HotSpot(TM) 64-Bit Server VM
Default Encoding: UTF-8
Language: en
Country: US
--></g></svg>