<?xml version="1.0" encoding="UTF-8" standalone="no"?><svg xmlns="http://www.w3.org/2000/svg" xmlns:xlink="http://www.w3.org/1999/xlink" contentScriptType="application/ecmascript" contentStyleType="text/css" height="860px" preserveAspectRatio="none" style="width:662px;height:860px;" version="1.1" viewBox="0 0 662 860" width="662px" zoomAndPan="magnify"><defs><filter height="300%" id="fy62g21qh5sp" width="300%" x="-1" y="-1"><feGaussianBlur result="blurOut" stdDeviation="2.0"/><feColorMatrix in="blurOut" result="blurOut2" type="matrix" values="0 0 0 0 0 0 0 0 0 0 0 0 0 0 0 0 0 0 .4 0"/><feOffset dx="4.0" dy="4.0" in="blurOut2" result="blurOut3"/><feBlend in="SourceGraphic" in2="blurOut3" mode="normal"/></filter></defs><g><!--MD5=[8403b87cecc3c69107ded8b467a332b8]
cluster HDD--><rect fill="#FFFFFF" filter="url(#fy62g21qh5sp)" height="91" rx="35" ry="35" style="stroke: #000000; stroke-width: 1.5;" width="126" x="14" y="16"/><text fill="#000000" font-family="sans-serif" font-size="14" font-weight="bold" lengthAdjust="spacingAndGlyphs" textLength="33" x="60.5" y="35.9951">HDD</text><!--MD5=[f8c4cc6f81218d70512cdc10ce5a1e47]
cluster libdpiprocessing--><polygon fill="#FFFFFF" filter="url(#fy62g21qh5sp)" points="17,242,27,232,395,232,395,838,385,848,17,848,17,242" style="stroke: #000000; stroke-width: 1.5;"/><line style="stroke: #000000; stroke-width: 1.5;" x1="385" x2="394" y1="242" y2="233"/><line style="stroke: #000000; stroke-width: 1.5;" x1="17" x2="385" y1="242" y2="242"/><line style="stroke: #000000; stroke-width: 1.5;" x1="385" x2="385" y1="242" y2="848"/><text fill="#000000" font-family="sans-serif" font-size="14" font-weight="bold" lengthAdjust="spacingAndGlyphs" textLength="130" x="137" y="257.9951">libdpiprocessing</text><!--MD5=[af5328b5e429307ac0a82c9451a8aff8]
cluster bag.tar--><polygon fill="#FFFFFF" filter="url(#fy62g21qh5sp)" points="130,555,192,555,199,577.2969,265,577.2969,265,646,130,646,130,555" style="stroke: #000000; stroke-width: 1.5;"/><line style="stroke: #000000; stroke-width: 1.5;" x1="130" x2="199" y1="577.2969" y2="577.2969"/><text fill="#000000" font-family="sans-serif" font-size="14" font-weight="bold" lengthAdjust="spacingAndGlyphs" textLength="56" x="134" y="569.9951">bag.tar</text><!--MD5=[2ac2f0682d7461d76966acc02c7b4a7e]
entity vendorfiles--><polygon fill="#FEFECE" filter="url(#fy62g21qh5sp)" points="22.5,43,68.5,43,75.5,64,131.5,64,131.5,98.5938,22.5,98.5938,22.5,43" style="stroke: #000000; stroke-width: 1.5;"/><line style="stroke: #000000; stroke-width: 1.5;" x1="22.5" x2="75.5" y1="64" y2="64"/><text fill="#000000" font-family="sans-serif" font-size="14" lengthAdjust="spacingAndGlyphs" textLength="79" x="32.5" y="83.9951">vendor files</text><!--MD5=[82f23cda116f7491e2ad662b9686858a]
entity files--><polygon fill="#FEFECE" filter="url(#fy62g21qh5sp)" points="48.5,264,94.5,264,101.5,285,105.5,285,105.5,319.5938,48.5,319.5938,48.5,264" style="stroke: #000000; stroke-width: 1.5;"/><line style="stroke: #000000; stroke-width: 1.5;" x1="48.5" x2="101.5" y1="285" y2="285"/><text fill="#000000" font-family="sans-serif" font-size="14" lengthAdjust="spacingAndGlyphs" textLength="27" x="58.5" y="304.9951">files</text><!--MD5=[a28264f38149f2692eb7c26a70e5a826]
entity manifest.csv--><polygon fill="#FEFECE" filter="url(#fy62g21qh5sp)" points="239,274,239,310.2969,345,310.2969,345,284,335,274,239,274" style="stroke: #000000; stroke-width: 1.5;"/><path d="M335,274 L335,284 L345,284 " fill="#FEFECE" style="stroke: #000000; stroke-width: 1.5;"/><text fill="#000000" font-family="sans-serif" font-size="14" lengthAdjust="spacingAndGlyphs" textLength="86" x="249" y="296.9951">manifest.csv</text><!--MD5=[2d6fd283c7c0e016f2b6cb05b97949dc]
entity awsarchiver--><rect fill="#FEFECE" filter="url(#fy62g21qh5sp)" height="36.2969" style="stroke: #000000; stroke-width: 1.5;" width="106" x="158" y="385"/><text fill="#000000" font-family="sans-serif" font-size="14" lengthAdjust="spacingAndGlyphs" textLength="86" x="168" y="407.9951">aws-archiver</text><!--MD5=[99d0f84c57283e5154487d4e82fd631f]
entity DART--><rect fill="#FEFECE" filter="url(#fy62g21qh5sp)" height="36.2969" style="stroke: #000000; stroke-width: 1.5;" width="98" x="25" y="385"/><text fill="#000000" font-family="sans-serif" font-size="14" lengthAdjust="spacingAndGlyphs" textLength="78" x="35" y="407.9951">dart-runner</text><!--MD5=[f59eda87e3962aa80650b9c63c8f8f04]
entity keypaths--><rect fill="#FEFECE" filter="url(#fy62g21qh5sp)" height="32.2969" style="stroke: #000000; stroke-width: 1.5;" width="83" x="303.5" y="389"/><rect fill="#FEFECE" height="32.2969" style="stroke: #000000; stroke-width: 1.5;" width="83" x="299.5" y="385"/><text fill="#000000" font-family="sans-serif" font-size="14" lengthAdjust="spacingAndGlyphs" textLength="67" x="307.5" y="405.9951">key paths</text><!--MD5=[33514ad2b869aedb5d13a5777438721a]
entity apt_upload--><rect fill="#FEFECE" filter="url(#fy62g21qh5sp)" height="36.2969" style="stroke: #000000; stroke-width: 1.5;" width="96" x="272" y="703"/><text fill="#000000" font-family="sans-serif" font-size="14" lengthAdjust="spacingAndGlyphs" textLength="76" x="282" y="725.9951">apt_upload</text><!--MD5=[a8b6e8d91342ae8267d2c267329391f1]
entity dartrunner_json--><polygon fill="#FEFECE" filter="url(#fy62g21qh5sp)" points="25.5,486,25.5,522.2969,156.5,522.2969,156.5,496,146.5,486,25.5,486" style="stroke: #000000; stroke-width: 1.5;"/><path d="M146.5,486 L146.5,496 L156.5,496 " fill="#FEFECE" style="stroke: #000000; stroke-width: 1.5;"/><text fill="#000000" font-family="sans-serif" font-size="14" lengthAdjust="spacingAndGlyphs" textLength="111" x="35.5" y="508.9951">dart-runner.json</text><!--MD5=[b91539a8f382aa2eebedce08675fc361]
entity apt_upload_json--><polygon fill="#FEFECE" filter="url(#fy62g21qh5sp)" points="256.5,804,256.5,840.2969,385.5,840.2969,385.5,814,375.5,804,256.5,804" style="stroke: #000000; stroke-width: 1.5;"/><path d="M375.5,804 L375.5,814 L385.5,814 " fill="#FEFECE" style="stroke: #000000; stroke-width: 1.5;"/><text fill="#000000" font-family="sans-serif" font-size="14" lengthAdjust="spacingAndGlyphs" textLength="109" x="266.5" y="826.9951">apt_upload.json</text><!--MD5=[c338edf484f2e4564cc4ca569e00c931]
entity payload--><polygon fill="#FEFECE" filter="url(#fy62g21qh5sp)" points="138.5,582,184.5,582,191.5,603,221.5,603,221.5,637.5938,138.5,637.5938,138.5,582" style="stroke: #000000; stroke-width: 1.5;"/><line style="stroke: #000000; stroke-width: 1.5;" x1="138.5" x2="191.5" y1="603" y2="603"/><text fill="#000000" font-family="sans-serif" font-size="14" lengthAdjust="spacingAndGlyphs" textLength="53" x="148.5" y="622.9951">payload</text><!--MD5=[f8e745406a4437ba9dd668c2fc83629b]
entity inventory--><rect fill="#FEFECE" filter="url(#fy62g21qh5sp)" height="36.2969" style="stroke: #000000; stroke-width: 1.5;" width="168" x="167" y="53"/><text fill="#000000" font-family="sans-serif" font-size="14" lengthAdjust="spacingAndGlyphs" textLength="148" x="177" y="75.9951">preserve.py inventory</text><!--MD5=[36372c27245bf09523e181bbcc58b0eb]
entity inventory.csv--><polygon fill="#FEFECE" filter="url(#fy62g21qh5sp)" points="198,163.5,198,199.7969,304,199.7969,304,173.5,294,163.5,198,163.5" style="stroke: #000000; stroke-width: 1.5;"/><path d="M294,163.5 L294,173.5 L304,173.5 " fill="#FEFECE" style="stroke: #000000; stroke-width: 1.5;"/><text fill="#000000" font-family="sans-serif" font-size="14" lengthAdjust="spacingAndGlyphs" textLength="86" x="208" y="186.4951">manifest.csv</text><!--MD5=[bce9e5b8925639d03d9010f6f9f070b5]
entity accessions--><rect fill="#FEFECE" filter="url(#fy62g21qh5sp)" height="32.2969" style="stroke: #000000; stroke-width: 1.5;" width="94" x="458" y="167.5"/><rect fill="#FEFECE" height="32.2969" style="stroke: #000000; stroke-width: 1.5;" width="94" x="454" y="163.5"/><text fill="#000000" font-family="sans-serif" font-size="14" lengthAdjust="spacingAndGlyphs" textLength="78" x="462" y="184.4951">accessions</text><!--MD5=[d88bf933616521ec77bee194e2596d5e]
entity locations--><rect fill="#FEFECE" filter="url(#fy62g21qh5sp)" height="32.2969" style="stroke: #000000; stroke-width: 1.5;" width="78" x="567" y="278"/><rect fill="#FEFECE" height="32.2969" style="stroke: #000000; stroke-width: 1.5;" width="78" x="563" y="274"/><text fill="#000000" font-family="sans-serif" font-size="14" lengthAdjust="spacingAndGlyphs" textLength="62" x="571" y="294.9951">locations</text><!--MD5=[e0965f6e745cb8306ccb5894ec252a64]
entity patsydb--><rect fill="#FEFECE" filter="url(#fy62g21qh5sp)" height="36.2969" style="stroke: #000000; stroke-width: 1.5;" width="80" x="339" y="163.5"/><text fill="#000000" font-family="sans-serif" font-size="14" lengthAdjust="spacingAndGlyphs" textLength="60" x="349" y="186.4951">patsy-db</text><!--MD5=[d4f3570142f35dec01adb583549863ff]
entity patsydbdeposit--><rect fill="#FEFECE" filter="url(#fy62g21qh5sp)" height="36.2969" style="stroke: #000000; stroke-width: 1.5;" width="80" x="418" y="274"/><text fill="#000000" font-family="sans-serif" font-size="14" lengthAdjust="spacingAndGlyphs" textLength="60" x="428" y="296.9951">patsy-db</text><!--MD5=[829a04ad57ec4aa430f11b368a6dd616]
entity PATSy--><path d="M587.5,169 C587.5,159 619,159 619,159 C619,159 650.5,159 650.5,169 L650.5,194.2969 C650.5,204.2969 619,204.2969 619,204.2969 C619,204.2969 587.5,204.2969 587.5,194.2969 L587.5,169 " fill="#FEFECE" filter="url(#fy62g21qh5sp)" style="stroke: #000000; stroke-width: 1.5;"/><path d="M587.5,169 C587.5,179 619,179 619,179 C619,179 650.5,179 650.5,169 " fill="none" style="stroke: #000000; stroke-width: 1.5;"/><text fill="#000000" font-family="sans-serif" font-size="14" lengthAdjust="spacingAndGlyphs" textLength="43" x="597.5" y="195.9951">PATSy</text><!--MD5=[6b79fc3fbc1964d4aa85a65b864094f2]
entity AWS--><path d="M431.1198,389.5689 C433.2827,383.8668 438.2985,382.6066 442.2098,387.7872 C444.6266,382.8214 448.745,381.7927 452.6898,386.0514 C456.8008,381.2177 461.7456,383.508 463.5681,388.5677 C466.8861,382.4177 470.8565,383.6449 474.6834,388.0309 C483.8001,391.0866 486.2672,397.1563 478.8948,404.4431 C485.2857,410.5866 484.437,415.3091 476.4377,419.0284 C475.6703,426.5655 470.893,428.857 464.6011,424.5489 C462.4778,431.1127 458.3489,433.3135 452.1609,429.3539 C446.2792,433.4645 443.0428,431.4425 441.5135,424.9736 C435.7979,427.3236 431.3836,426.4866 431.2991,419.079 C422.8057,416.1055 421.1598,408.6696 428.9352,403.2643 C423.2217,397.8672 424.8384,393.0526 431.1198,389.5689 " fill="#FEFECE" style="stroke: #000000; stroke-width: 1.5;"/><text fill="#000000" font-family="sans-serif" font-size="14" lengthAdjust="spacingAndGlyphs" textLength="31" x="436.5" y="407.9951">AWS</text><!--MD5=[ef612689fa995bc62764830febeedbcc]
entity APTrust--><path d="M412.3988,707.8259 C414.9638,701.7893 418.934,701.2086 423.7765,705.2565 C427.2724,700.4522 432.434,699.3207 435.4051,705.7975 C437.2201,700.4323 441.7807,700.207 445.2423,704.0356 C448.801,700.0078 454.5415,699.6781 456.4392,705.8576 C459.8776,701.0845 464.2059,699.9358 467.7597,705.734 C472.2738,700.2606 475.7886,700.8011 479.0842,706.9238 C488.1733,709.5517 491.5441,713.8833 486.4225,722.9985 C492.1203,729.9383 487.8494,737.2118 479.9515,738.4623 C477.8116,743.9021 473.8219,745.4209 469.1207,741.3921 C465.9415,747.0008 461.5858,747.734 457.0572,742.9599 C455.5309,749.0836 451.476,751.7844 445.7206,747.6199 C440.5438,751.6585 436.8058,749.4273 435.6306,743.5486 C430.2901,747.9801 425.7708,747.5968 422.9358,740.7326 C418.8968,744.3147 414.7822,743.0293 413.1123,738.0228 C404.5685,734.3959 403.8125,727.5713 409.9753,721.2018 C403.7885,715.4275 404.2846,711.0092 412.3988,707.8259 " fill="#FEFECE" style="stroke: #000000; stroke-width: 1.5;"/><text fill="#000000" font-family="sans-serif" font-size="14" lengthAdjust="spacingAndGlyphs" textLength="54" x="418" y="725.9951">APTrust</text><!--MD5=[935d2ab905fa52b539c0f3ec318a9e7e]
link inventory.csv to manifest.csv--><path d="M271.5,199.7468 C271.5,199.7468 271.5,268.7261 271.5,268.7261 " fill="none" id="inventory.csv-&gt;manifest.csv" style="stroke: #A80036; stroke-width: 1.0;"/><polygon fill="#A80036" points="271.5,273.7261,275.5,264.7261,271.5,268.7261,267.5,264.7261,271.5,273.7261" style="stroke: #A80036; stroke-width: 1.0;"/><!--MD5=[dcb18d3040d20cf3763566be699b2a4a]
link vendorfiles to files--><path d="M77,99.4395 C77,99.4395 77,258.6697 77,258.6697 " fill="none" id="vendorfiles-&gt;files" style="stroke: #A80036; stroke-width: 1.0;"/><polygon fill="#A80036" points="77,263.6697,81,254.6697,77,258.6697,73,254.6697,77,263.6697" style="stroke: #A80036; stroke-width: 1.0;"/><!--MD5=[ec2a418b37fd54ce5e59fc8e4c50f2c6]
link vendorfiles to inventory--><path d="M131.5773,71 C131.5773,71 161.9794,71 161.9794,71 " fill="none" id="vendorfiles-&gt;inventory" style="stroke: #A80036; stroke-width: 1.0;"/><polygon fill="#A80036" points="166.9794,71,157.9794,67,161.9794,71,157.9794,75,166.9794,71" style="stroke: #A80036; stroke-width: 1.0;"/><!--MD5=[444235f8bee905565d7ca2eaf1d63022]
link inventory to inventory.csv--><path d="M251,89.2468 C251,89.2468 251,158.2261 251,158.2261 " fill="none" id="inventory-&gt;inventory.csv" style="stroke: #A80036; stroke-width: 1.0;"/><polygon fill="#A80036" points="251,163.2261,255,154.2261,251,158.2261,247,154.2261,251,163.2261" style="stroke: #A80036; stroke-width: 1.0;"/><!--MD5=[dc4b54f3c3d8eb2dcca6d18170ed937f]
link inventory.csv to patsydb--><path d="M304.1715,182 C304.1715,182 333.6812,182 333.6812,182 " fill="none" id="inventory.csv-&gt;patsydb" style="stroke: #A80036; stroke-width: 1.0;"/><polygon fill="#A80036" points="338.6812,182,329.6812,178,333.6812,182,329.6812,186,338.6812,182" style="stroke: #A80036; stroke-width: 1.0;"/><!--MD5=[dd1511e8872ff5a3395eb132ed94e960]
link patsydb to accessions--><path d="M419.2592,182 C419.2592,182 448.8444,182 448.8444,182 " fill="none" id="patsydb-&gt;accessions" style="stroke: #A80036; stroke-width: 1.0;"/><polygon fill="#A80036" points="453.8444,182,444.8444,178,448.8444,182,444.8444,186,453.8444,182" style="stroke: #A80036; stroke-width: 1.0;"/><!--MD5=[2c64200159611d47dc3e78fa8afc48b5]
link accessions to PATSy--><path d="M552.1944,182 C552.1944,182 582.2258,182 582.2258,182 " fill="none" id="accessions-&gt;PATSy" style="stroke: #A80036; stroke-width: 1.0;"/><polygon fill="#A80036" points="587.2258,182,578.2258,178,582.2258,182,578.2258,186,587.2258,182" style="stroke: #A80036; stroke-width: 1.0;"/><!--MD5=[47ff13e6efe60c006009bf3bf546137b]
link files to awsarchiver--><path d="M105.9464,315 C130.7506,315 162.5,315 162.5,315 C162.5,315 162.5,379.7663 162.5,379.7663 " fill="none" id="files-&gt;awsarchiver" style="stroke: #A80036; stroke-width: 1.0;"/><polygon fill="#A80036" points="162.5,384.7663,166.5,375.7663,162.5,379.7663,158.5,375.7663,162.5,384.7663" style="stroke: #A80036; stroke-width: 1.0;"/><!--MD5=[a600d7dba7b83cafe0fffd4662deee89]
link manifest.csv to awsarchiver--><path d="M251.5,310.3294 C251.5,310.3294 251.5,379.6434 251.5,379.6434 " fill="none" id="manifest.csv-&gt;awsarchiver" style="stroke: #A80036; stroke-width: 1.0;"/><polygon fill="#A80036" points="251.5,384.6434,255.5,375.6434,251.5,379.6434,247.5,375.6434,251.5,384.6434" style="stroke: #A80036; stroke-width: 1.0;"/><!--MD5=[f26e43bc621810dc57edc8512fff29b1]
link awsarchiver to keypaths--><path d="M264.309,403 C264.309,403 294.2078,403 294.2078,403 " fill="none" id="awsarchiver-&gt;keypaths" style="stroke: #A80036; stroke-width: 1.0;"/><polygon fill="#A80036" points="299.2078,403,290.2078,399,294.2078,403,290.2078,407,299.2078,403" style="stroke: #A80036; stroke-width: 1.0;"/><!--MD5=[9cad1bc622f3d2891d547a701bf7c0a8]
link keypaths to AWS--><path d="M386.7064,403 C386.7064,403 416.3519,403 416.3519,403 " fill="none" id="keypaths-&gt;AWS" style="stroke: #A80036; stroke-width: 1.0;"/><polygon fill="#A80036" points="421.3519,403,412.3519,399,416.3519,403,412.3519,407,421.3519,403" style="stroke: #A80036; stroke-width: 1.0;"/><!--MD5=[1707cd4089dbcbb43810764732b606be]
reverse link manifest.csv to keypaths--><path d="M322.25,315.3294 C322.25,315.3294 322.25,384.6434 322.25,384.6434 " fill="none" id="manifest.csv&lt;-keypaths" style="stroke: #A80036; stroke-width: 1.0;"/><polygon fill="#A80036" points="322.25,310.3294,318.25,319.3294,322.25,315.3294,326.25,319.3294,322.25,310.3294" style="stroke: #A80036; stroke-width: 1.0;"/><!--MD5=[55db056d51a8f4dc19111e75321b9f3b]
link manifest.csv to patsydbdeposit--><path d="M345.4372,292 C345.4372,292 412.8293,292 412.8293,292 " fill="none" id="manifest.csv-&gt;patsydbdeposit" style="stroke: #A80036; stroke-width: 1.0;"/><polygon fill="#A80036" points="417.8293,292,408.8293,288,412.8293,292,408.8293,296,417.8293,292" style="stroke: #A80036; stroke-width: 1.0;"/><!--MD5=[131e93115330427e0df2a0a568f9c1d8]
link patsydbdeposit to locations--><path d="M498.2816,292 C498.2816,292 557.8344,292 557.8344,292 " fill="none" id="patsydbdeposit-&gt;locations" style="stroke: #A80036; stroke-width: 1.0;"/><polygon fill="#A80036" points="562.8344,292,553.8344,288,557.8344,292,553.8344,296,562.8344,292" style="stroke: #A80036; stroke-width: 1.0;"/><!--MD5=[86ea7934f15e3d4e7bad804bd06b24d4]
reverse link PATSy to locations--><path d="M616.25,209.128 C616.25,209.128 616.25,273.7851 616.25,273.7851 " fill="none" id="PATSy&lt;-locations" style="stroke: #A80036; stroke-width: 1.0;"/><polygon fill="#A80036" points="616.25,204.128,612.25,213.128,616.25,209.128,620.25,213.128,616.25,204.128" style="stroke: #A80036; stroke-width: 1.0;"/><!--MD5=[f4906b2d4446ed618137e9795e09dfb8]
link files to DART--><path d="M77,320.01 C77,320.01 77,379.7483 77,379.7483 " fill="none" id="files-&gt;DART" style="stroke: #A80036; stroke-width: 1.0;"/><polygon fill="#A80036" points="77,384.7483,81,375.7483,77,379.7483,73,375.7483,77,384.7483" style="stroke: #A80036; stroke-width: 1.0;"/><!--MD5=[9fb5e985fdb9f2b7677f04df2e71634d]
link DART to bag.tar--><path d="M90.5,421.2396 C90.5,436.5706 90.5,456 90.5,456 C90.5,456 257,456 257,456 C257,456 257,492.1314 257,529.3918 C257,534.0494 257,538.7246 257,543.349 C257,545.6613 257,547.9608 257,550.2392 C257,551.3783 257,552.5122 257,553.6397 C257,553.9215 257,571.0158 257,571.2969 " fill="none" id="DART-&gt;bag.tar" style="stroke: #A80036; stroke-width: 1.0;"/><polygon fill="#A80036" points="257,554.4841,261,545.4841,257,549.4841,253,545.4841,257,554.4841" style="stroke: #A80036; stroke-width: 1.0;"/><!--MD5=[137b3e6f1b157fba1fd1ae356960da19]
link bag.tar to apt_upload--><path d="M265.0467,610 C265.4165,610 265.7933,610 266.1757,610 C266.9406,610 267.7282,610 268.5281,610 C270.1278,610 271.7764,610 273.3905,610 C279.847,610 285.75,610 285.75,610 C285.75,610 285.75,697.6706 285.75,697.6706 " fill="none" id="bag.tar-&gt;apt_upload" style="stroke: #A80036; stroke-width: 1.0;"/><polygon fill="#A80036" points="285.75,702.6706,289.75,693.6706,285.75,697.6706,281.75,693.6706,285.75,702.6706" style="stroke: #A80036; stroke-width: 1.0;"/><!--MD5=[6fe2641a477793cfe6cc9dd3bac5fda4]
link apt_upload to APTrust--><path d="M368.3283,715 C368.3283,715 397.9053,715 397.9053,715 " fill="none" id="apt_upload-&gt;APTrust" style="stroke: #A80036; stroke-width: 1.0;"/><polygon fill="#A80036" points="402.9053,715,393.9053,711,397.9053,715,393.9053,719,402.9053,715" style="stroke: #A80036; stroke-width: 1.0;"/><!--MD5=[4ac3991b93f646e7cf009d8406e06e23]
link APTrust to apt_upload_json--><path d="M402.942,727 C388.897,727 376.75,727 376.75,727 C376.75,727 376.75,798.683 376.75,798.683 " fill="none" id="APTrust-&gt;apt_upload_json" style="stroke: #A80036; stroke-width: 1.0; stroke-dasharray: 7.0,7.0;"/><polygon fill="#A80036" points="376.75,803.683,380.75,794.683,376.75,798.683,372.75,794.683,376.75,803.683" style="stroke: #A80036; stroke-width: 1.0;"/><!--MD5=[303d847c09b9dd0e25181d8ae35934eb]
link apt_upload to apt_upload_json--><path d="M320,739.0568 C320,739.0568 320,798.759 320,798.759 " fill="none" id="apt_upload-&gt;apt_upload_json" style="stroke: #A80036; stroke-width: 1.0;"/><polygon fill="#A80036" points="320,803.759,324,794.759,320,798.759,316,794.759,320,803.759" style="stroke: #A80036; stroke-width: 1.0;"/><!--MD5=[7789d2573e21bd4f8f490899c3bb65ec]
link DART to dartrunner_json--><path d="M58,421.0568 C58,421.0568 58,480.759 58,480.759 " fill="none" id="DART-&gt;dartrunner_json" style="stroke: #A80036; stroke-width: 1.0;"/><polygon fill="#A80036" points="58,485.759,62,476.759,58,480.759,54,476.759,58,485.759" style="stroke: #A80036; stroke-width: 1.0;"/><!--MD5=[22decabff5a623f8f89317a865124783]
@startuml Digital Preservation Process
skinparam linetype ortho

storage HDD {
    folder vendorfiles as "vendor files"
}
rectangle inventory as "preserve.py inventory"
file inventory.csv as "manifest.csv"
collections accessions
collections locations
rectangle patsydb as "patsy-db"
rectangle patsydbdeposit as "patsy-db"
database PATSy
node libdpiprocessing {
    folder files
    file manifest.csv
    rectangle awsarchiver as "aws-archiver"
    rectangle DART as "dart-runner"
    collections keypaths as "key paths"
    package bag.tar {
        folder payload
    }
    rectangle apt_upload
    file dartrunner_json as "dart-runner.json"
    file apt_upload_json as "apt_upload.json"
}
cloud AWS
cloud APTrust

inventory.csv - -> manifest.csv
vendorfiles - -> files

vendorfiles -> inventory
inventory - -> inventory.csv
inventory.csv -> patsydb
patsydb -> accessions
accessions -> PATSy

files - -> awsarchiver
manifest.csv - -> awsarchiver
awsarchiver -> keypaths
keypaths -> AWS
manifest.csv <- - keypaths
manifest.csv -> patsydbdeposit
patsydbdeposit -> locations
PATSy <- - locations

files - -> DART
DART - - -> bag.tar
bag.tar - -> apt_upload
apt_upload -> APTrust
APTrust ..> apt_upload_json
apt_upload - -> apt_upload_json
DART - -> dartrunner_json
@enduml

PlantUML version 1.2020.06(Sun Apr 05 12:38:32 GMT 2020)
(GPL source distribution)
Java Runtime: OpenJDK Runtime Environment
JVM: OpenJDK 64-Bit Server VM
Java Version: 14-ea+33
Operating System: Linux
Default Encoding: UTF-8
Language: en
Country: US
--></g></svg>